<svg width="306" height="137" xmlns="http://www.w3.org/2000/svg" xmlns:xlink="http://www.w3.org/1999/xlink" overflow="hidden"><defs><clipPath id="clip0"><rect x="863" y="495" width="306" height="137"/></clipPath></defs><g clip-path="url(#clip0)" transform="translate(-863 -495)"><path d="M1080 495 1135 495 1086.88 572.723C1086.01 574 1084.39 574 1084.2 572.052L1080 495Z" fill="#FF4552" fill-rule="evenodd"/><path d="M958.696 495 979 495 979 513.967 978.333 513.967 956.44 574.41 979 574.41 979 581 957.42 580.994C950.861 580.994 945.652 579.429 941.791 576.299 937.93 573.169 936 568.93 936 563.588 936 560.835 936.58 557.87 937.744 554.696L958.696 495Z" fill="#FF4552" fill-rule="evenodd"/><path d="M979 495 985.366 495 980.702 507.3 1004.15 507.3 1008.85 495 1017 495 1017 513.965 1016.33 513.965 994.238 574.4 1017 574.4 1017 581 979 580.989 979 574.4 979.637 574.4 1001.76 513.965 979 513.965 979 495Z" fill="#FF4552" fill-rule="evenodd"/><path d="M1017 495 1023.34 495 1018.7 507.298 1042.06 507.298 1046.75 495 1078 495 1077.75 572.591C1077.68 574.39 1076.37 575.532 1074.68 572.749L1043.95 527.331 1068.78 576.261C1069.54 578.113 1068.35 578.821 1066.45 578.409L1030.98 564.29 1057.11 581 1017 580.989 1017 574.39 1017.64 574.39 1039.68 513.963 1017 513.963 1017 495Z" fill="#FF4552" fill-rule="evenodd"/><path d="M908.563 495 927.52 495 908.793 548.622C907.378 552.686 906.671 556.457 906.671 559.939 906.671 569.226 911.373 576.399 920.779 581.456 928.769 585.768 941.491 587.609 953.395 587.609L1067.24 587.65C1069.37 587.667 1070.55 587.053 1071.62 585.215 1073.85 581.396 1077.39 579.627 1081.81 580.21 1086.12 580.78 1089.06 583.273 1090.4 587.421 1092 592.354 1089.66 597.514 1084.88 599.812 1080.34 602 1074.75 600.671 1072.14 596.279 1070.74 593.94 1069.18 593.394 1066.66 593.415L953.395 593.479C888.978 593.479 885 564.23 891.329 544.202L908.563 495Z" fill="#FF4552" fill-rule="evenodd"/><path d="M1151 551 1137.1 589 1099.17 587.324C1097 587.264 1097.02 585.474 1098.72 584.312L1151 551Z" fill="#FF4552" fill-rule="evenodd"/><path d="M1137.43 495 1161.1 495C1166.29 495 1169 499.234 1167.15 504.457L1151.88 547.067C1127.44 560.72 1098.37 576.977 1094.67 579.121 1093.15 580 1092 578.388 1092.71 577.156L1137.43 495Z" fill="#FF4552" fill-rule="evenodd"/><path d="M1086.43 607 1103 631 1082 631 1084.39 609.159C1084.37 607.78 1084.74 607.036 1086.43 607Z" fill="#FFFFFF" fill-rule="evenodd"/><path d="M875.329 593C875.329 593 883.389 601.076 906.057 601.076L1056.11 601.073 1010.74 624.851 1067.43 602.59C1067.95 603.055 1068.43 603.491 1069 604.013L1051.42 631 870.882 631C865.702 631 863 626.87 864.848 621.776L875.329 593Z" fill="#FFFFFF" fill-rule="evenodd"/><path d="M1075.33 607.24C1075.64 607.03 1076.02 607 1076.5 607.301 1076.98 607.59 1077.36 608.414 1077.36 609.002L1078 631 1056 631 1074.51 608.261C1074.75 607.841 1075.01 607.451 1075.33 607.24Z" fill="#FFFFFF" fill-rule="evenodd"/><path d="M1135 593 1126.19 617 1097.09 596.57C1097 595.007 1097.65 594.531 1099.16 594.553L1135 593Z" fill="#FFFFFF" fill-rule="evenodd"/><path d="M1093.42 602 1125 620.077 1124.44 621.63C1122.61 626.805 1116.96 631 1111.81 631L1107.26 631 1092 603.4C1092.46 602.941 1092.89 602.516 1093.42 602Z" fill="#FFFFFF" fill-rule="evenodd"/></g></svg>