<svg width="305" height="137" xmlns="http://www.w3.org/2000/svg" xmlns:xlink="http://www.w3.org/1999/xlink" overflow="hidden"><defs><clipPath id="clip0"><rect x="212" y="495" width="305" height="137"/></clipPath></defs><g clip-path="url(#clip0)" transform="translate(-212 -495)"><path d="M428 495 484 495 435.003 572.723C434.123 574 432.465 574 432.272 572.052L428 495Z" fill="#FF4552" fill-rule="evenodd"/><path d="M306.696 495 327 495 327 513.967 326.333 513.967 304.44 574.41 327 574.41 327 581 305.42 580.994C298.861 580.994 293.652 579.429 289.791 576.299 285.93 573.169 284 568.93 284 563.588 284 560.835 284.58 557.87 285.744 554.696L306.696 495Z" fill="#FF4552" fill-rule="evenodd"/><path d="M327 495 333.366 495 328.702 507.3 352.148 507.3 356.851 495 365 495 365 513.965 364.328 513.965 342.238 574.4 365 574.4 365 581 327 580.989 327 574.4 327.637 574.4 349.763 513.965 327 513.965 327 495Z" fill="#FF4552" fill-rule="evenodd"/><path d="M365 495 371.345 495 366.696 507.298 390.061 507.298 394.749 495 426 495 425.745 572.591C425.683 574.39 424.373 575.532 422.684 572.749L391.949 527.331 416.784 576.261C417.544 578.113 416.351 578.821 414.454 578.409L378.98 564.29 405.115 581 365 580.989 365 574.39 365.635 574.39 387.685 513.963 365 513.963 365 495Z" fill="#FF4552" fill-rule="evenodd"/><path d="M257.449 495 276.314 495 257.679 548.622C256.27 552.686 255.567 556.457 255.567 559.939 255.567 569.226 260.246 576.399 269.606 581.456 277.558 585.768 290.218 587.609 302.064 587.609L415.363 587.65C417.477 587.667 418.653 587.053 419.721 585.215 421.939 581.396 425.462 579.627 429.864 580.21 434.153 580.78 437.075 583.273 438.411 587.421 440 592.354 437.669 597.514 432.919 599.812 428.4 602 422.836 600.671 420.234 596.279 418.845 593.94 417.291 593.394 414.784 593.415L302.064 593.479C237.959 593.479 234 564.23 240.299 544.202L257.449 495Z" fill="#FF4552" fill-rule="evenodd"/><path d="M499 551 485.359 589 448.129 587.324C446 587.264 446.018 585.474 447.685 584.312L499 551Z" fill="#FF4552" fill-rule="evenodd"/><path d="M486.429 495 510.103 495C515.294 495 518 499.234 516.148 504.457L500.88 547.067C476.439 560.72 447.371 576.977 443.674 579.121 442.149 580 441 578.388 441.713 577.156L486.429 495Z" fill="#FF4552" fill-rule="evenodd"/><path d="M434.429 607 451 631 430 631 432.389 609.159C432.374 607.78 432.744 607.036 434.429 607Z" fill-rule="evenodd"/><path d="M223.389 593C223.389 593 231.488 601.076 254.266 601.076L405.047 601.073 359.459 624.851 416.427 602.59C416.941 603.055 417.426 603.491 418 604.013L400.338 631 218.921 631C213.715 631 211 626.87 212.857 621.776L223.389 593Z" fill-rule="evenodd"/><path d="M423.447 607.24C423.752 607.03 424.114 607 424.573 607.301 425.024 607.59 425.386 608.414 425.393 609.002L426 631 405 631 422.664 608.261C422.895 607.841 423.142 607.451 423.447 607.24Z" fill-rule="evenodd"/><path d="M484 593 475.19 617 446.086 596.57C446 595.007 446.652 594.531 448.165 594.553L484 593Z" fill-rule="evenodd"/><path d="M442.422 602 474 620.077 473.444 621.63C471.611 626.805 465.956 631 460.814 631L456.261 631 441 603.4C441.462 602.941 441.894 602.516 442.422 602Z" fill-rule="evenodd"/></g></svg>