<svg width="669" height="181" xmlns="http://www.w3.org/2000/svg" xmlns:xlink="http://www.w3.org/1999/xlink" overflow="hidden"><defs><clipPath id="clip0"><rect x="18" y="714" width="669" height="181"/></clipPath></defs><g clip-path="url(#clip0)" transform="translate(-18 -714)"><path d="M234 728 289 728 240.878 805.723C240.014 807 238.385 807 238.196 805.052L234 728Z" fill="#FF4552" fill-rule="evenodd"/><path d="M112.696 728 133 728 133 746.967 132.333 746.967 110.44 807.41 133 807.41 133 814 111.42 813.994C104.861 813.994 99.6516 812.429 95.7908 809.299 91.9305 806.169 90 801.93 90 796.588 90 793.835 90.5796 790.87 91.7437 787.696L112.696 728Z" fill="#FF4552" fill-rule="evenodd"/><path d="M133 728 139.366 728 134.702 740.3 158.148 740.3 162.851 728 171 728 171 746.965 170.328 746.965 148.238 807.4 171 807.4 171 814 133 813.989 133 807.4 133.637 807.4 155.763 746.965 133 746.965 133 728Z" fill="#FF4552" fill-rule="evenodd"/><path d="M171 728 177.345 728 172.696 740.298 196.061 740.298 200.749 728 232 728 231.745 805.591C231.683 807.39 230.373 808.532 228.684 805.749L197.949 760.331 222.784 809.261C223.544 811.113 222.351 811.821 220.454 811.409L184.98 797.29 211.115 814 171 813.989 171 807.39 171.635 807.39 193.685 746.963 171 746.963 171 728Z" fill="#FF4552" fill-rule="evenodd"/><path d="M63.4487 728 82.3142 728 63.6785 781.622C62.27 785.686 61.5666 789.457 61.5666 792.939 61.5666 802.226 66.2456 809.399 75.606 814.456 83.5577 818.768 96.2184 820.609 108.064 820.609L221.363 820.65C223.477 820.667 224.653 820.053 225.721 818.215 227.939 814.396 231.462 812.627 235.864 813.21 240.153 813.78 243.075 816.273 244.411 820.421 246 825.354 243.669 830.514 238.919 832.812 234.4 835 228.836 833.671 226.234 829.279 224.845 826.94 223.291 826.394 220.784 826.415L108.064 826.479C43.9589 826.479 40 797.23 46.2988 777.202L63.4487 728Z" fill="#FF4552" fill-rule="evenodd"/><path d="M305 784 291.359 822 254.129 820.324C252 820.264 252.018 818.474 253.685 817.312L305 784Z" fill="#FF4552" fill-rule="evenodd"/><path d="M291.839 728 315.205 728C320.329 728 323 732.184 321.172 737.346L306.103 779.454C281.979 792.947 253.288 809.012 249.639 811.131 248.134 812 247 810.407 247.703 809.19L291.839 728Z" fill="#FF4552" fill-rule="evenodd"/><path d="M240.429 840 257 864 236 864 238.389 842.159C238.374 840.78 238.744 840.036 240.429 840Z" fill-rule="evenodd"/><path d="M29.389 825C29.389 825 37.4876 833.289 60.2663 833.289L211.047 833.285 165.459 857.689 222.427 834.842C222.941 835.32 223.426 835.767 224 836.303L206.338 864 24.9205 864C19.715 864 17 859.762 18.857 854.533L29.389 825Z" fill-rule="evenodd"/><path d="M229.326 840.24C229.645 840.03 230.024 840 230.505 840.301 230.977 840.59 231.357 841.414 231.364 842.002L232 864 210 864 228.505 841.261C228.747 840.841 229.006 840.451 229.326 840.24Z" fill-rule="evenodd"/><path d="M290 825 280.958 850 251.089 828.719C251 827.091 251.669 826.595 253.222 826.618L290 825Z" fill-rule="evenodd"/><path d="M248.422 835 280 853.077 279.444 854.63C277.611 859.805 271.956 864 266.814 864L262.261 864 247 836.4C247.462 835.941 247.894 835.516 248.422 835Z" fill-rule="evenodd"/><text fill="#FF4552" font-family="Segoe UI,Segoe UI_MSFontService,sans-serif" font-weight="400" font-size="24" transform="translate(359.462 745)">10th International</text><text font-family="Segoe UI Light,Segoe UI Light_MSFontService,sans-serif" font-weight="300" font-size="37" transform="translate(359.462 783)">WORKSHOP ON</text><text font-family="Segoe UI,Segoe UI_MSFontService,sans-serif" font-weight="700" font-size="37" transform="translate(359.462 823)">LASER</text><text font-family="Segoe UI,Segoe UI_MSFontService,sans-serif" font-weight="700" font-size="37" transform="translate(470.949 823)">-</text><text font-family="Segoe UI,Segoe UI_MSFontService,sans-serif" font-weight="700" font-size="37" transform="translate(486.115 823)">INDUCED</text><text font-family="Segoe UI,Segoe UI_MSFontService,sans-serif" font-weight="700" font-size="37" transform="translate(359.462 863)">INCANDESCENCE</text></g></svg>