<svg width="458" height="463" xmlns="http://www.w3.org/2000/svg" xmlns:xlink="http://www.w3.org/1999/xlink" xml:space="preserve" overflow="hidden"><defs><clipPath id="clip0"><rect x="376" y="126" width="458" height="463"/></clipPath><linearGradient x1="733.094" y1="374.126" x2="785.635" y2="435.458" gradientUnits="userSpaceOnUse" spreadMethod="reflect" id="fill1"><stop offset="0" stop-color="#FF4552"/><stop offset="0.00392157" stop-color="#FF4552" stop-opacity="0.996078"/><stop offset="0.00784314" stop-color="#FF4552" stop-opacity="0.992157"/><stop offset="0.0117647" stop-color="#FF4552" stop-opacity="0.988235"/><stop offset="0.0156863" stop-color="#FF4552" stop-opacity="0.984314"/><stop offset="0.0196078" stop-color="#FF4552" stop-opacity="0.980392"/><stop offset="0.0235294" stop-color="#FF4552" stop-opacity="0.976471"/><stop offset="0.027451" stop-color="#FF4552" stop-opacity="0.972549"/><stop offset="0.0313726" stop-color="#FF4552" stop-opacity="0.968627"/><stop offset="0.0352941" stop-color="#FF4552" stop-opacity="0.964706"/><stop offset="0.0392157" stop-color="#FF4552" stop-opacity="0.960784"/><stop offset="0.0431373" stop-color="#FF4552" stop-opacity="0.956863"/><stop offset="0.0470588" stop-color="#FF4552" stop-opacity="0.952941"/><stop offset="0.0509804" stop-color="#FF4552" stop-opacity="0.94902"/><stop offset="0.054902" stop-color="#FF4552" stop-opacity="0.945098"/><stop offset="0.0588235" stop-color="#FF4552" stop-opacity="0.941176"/><stop offset="0.0627451" stop-color="#FF4551" stop-opacity="0.937255"/><stop offset="0.0666667" stop-color="#FF4552" stop-opacity="0.933333"/><stop offset="0.0705882" stop-color="#FF4451" stop-opacity="0.929412"/><stop offset="0.0745098" stop-color="#FF4452" stop-opacity="0.92549"/><stop offset="0.0784314" stop-color="#FF4552" stop-opacity="0.921569"/><stop offset="0.0823529" stop-color="#FF4552" stop-opacity="0.917647"/><stop offset="0.0862745" stop-color="#FF4552" stop-opacity="0.913725"/><stop offset="0.0901961" stop-color="#FF4552" stop-opacity="0.909804"/><stop offset="0.0941176" stop-color="#FF4552" stop-opacity="0.905882"/><stop offset="0.0980392" stop-color="#FF4552" stop-opacity="0.901961"/><stop offset="0.101961" stop-color="#FF4552" stop-opacity="0.898039"/><stop offset="0.105882" stop-color="#FF4552" stop-opacity="0.894118"/><stop offset="0.109804" stop-color="#FF4552" stop-opacity="0.890196"/><stop offset="0.113725" stop-color="#FF4552" stop-opacity="0.886275"/><stop offset="0.117647" stop-color="#FF4552" stop-opacity="0.882353"/><stop offset="0.121569" stop-color="#FF4552" stop-opacity="0.878431"/><stop offset="0.12549" stop-color="#FF4552" stop-opacity="0.87451"/><stop offset="0.129412" stop-color="#FF4552" stop-opacity="0.870588"/><stop offset="0.133333" stop-color="#FF4552" stop-opacity="0.866667"/><stop offset="0.137255" stop-color="#FF4552" stop-opacity="0.862745"/><stop offset="0.141176" stop-color="#FF4552" stop-opacity="0.858824"/><stop offset="0.145098" stop-color="#FF4552" stop-opacity="0.854902"/><stop offset="0.14902" stop-color="#FF4552" stop-opacity="0.85098"/><stop offset="0.152941" stop-color="#FF4552" stop-opacity="0.847059"/><stop offset="0.156863" stop-color="#FF4552" stop-opacity="0.843137"/><stop offset="0.160784" stop-color="#FF4552" stop-opacity="0.839216"/><stop offset="0.164706" stop-color="#FF4552" stop-opacity="0.835294"/><stop offset="0.168627" stop-color="#FF4552" stop-opacity="0.831373"/><stop offset="0.172549" stop-color="#FF4552" stop-opacity="0.827451"/><stop offset="0.176471" stop-color="#FF4551" stop-opacity="0.823529"/><stop offset="0.180392" stop-color="#FF4552" stop-opacity="0.819608"/><stop offset="0.184314" stop-color="#FF4552" stop-opacity="0.815686"/><stop offset="0.188235" stop-color="#FF4552" stop-opacity="0.811765"/><stop offset="0.192157" stop-color="#FF4552" stop-opacity="0.807843"/><stop offset="0.196078" stop-color="#FF4552" stop-opacity="0.803922"/><stop offset="0.2" stop-color="#FF4552" stop-opacity="0.8"/><stop offset="0.203922" stop-color="#FF4552" stop-opacity="0.796078"/><stop offset="0.207843" stop-color="#FF4552" stop-opacity="0.792157"/><stop offset="0.211765" stop-color="#FF4552" stop-opacity="0.788235"/><stop offset="0.215686" stop-color="#FF4552" stop-opacity="0.784314"/><stop offset="0.219608" stop-color="#FF4552" stop-opacity="0.780392"/><stop offset="0.223529" stop-color="#FF4552" stop-opacity="0.776471"/><stop offset="0.227451" stop-color="#FF4552" stop-opacity="0.772549"/><stop offset="0.231373" stop-color="#FF4552" stop-opacity="0.768627"/><stop offset="0.235294" stop-color="#FF4552" stop-opacity="0.764706"/><stop offset="0.239216" stop-color="#FF4552" stop-opacity="0.760784"/><stop offset="0.243137" stop-color="#FF4552" stop-opacity="0.756863"/><stop offset="0.247059" stop-color="#FF4552" stop-opacity="0.752941"/><stop offset="0.25098" stop-color="#FF4552" stop-opacity="0.74902"/><stop offset="0.254902" stop-color="#FF4552" stop-opacity="0.745098"/><stop offset="0.258824" stop-color="#FF4552" stop-opacity="0.741176"/><stop offset="0.262745" stop-color="#FF4552" stop-opacity="0.737255"/><stop offset="0.266667" stop-color="#FF4551" stop-opacity="0.733333"/><stop offset="0.270588" stop-color="#FF4552" stop-opacity="0.729412"/><stop offset="0.27451" stop-color="#FF4552" stop-opacity="0.72549"/><stop offset="0.278431" stop-color="#FF4552" stop-opacity="0.721569"/><stop offset="0.282353" stop-color="#FF4552" stop-opacity="0.717647"/><stop offset="0.286275" stop-color="#FF4552" stop-opacity="0.713725"/><stop offset="0.290196" stop-color="#FF4552" stop-opacity="0.709804"/><stop offset="0.294118" stop-color="#FF4552" stop-opacity="0.705882"/><stop offset="0.298039" stop-color="#FF4552" stop-opacity="0.701961"/><stop offset="0.301961" stop-color="#FF4551" stop-opacity="0.698039"/><stop offset="0.305882" stop-color="#FF4552" stop-opacity="0.694118"/><stop offset="0.309804" stop-color="#FF4552" stop-opacity="0.690196"/><stop offset="0.313726" stop-color="#FF4552" stop-opacity="0.686275"/><stop offset="0.317647" stop-color="#FF4552" stop-opacity="0.682353"/><stop offset="0.321569" stop-color="#FF4552" stop-opacity="0.678431"/><stop offset="0.32549" stop-color="#FF4552" stop-opacity="0.67451"/><stop offset="0.329412" stop-color="#FF4552" stop-opacity="0.670588"/><stop offset="0.333333" stop-color="#FF4552" stop-opacity="0.666667"/><stop offset="0.337255" stop-color="#FF4552" stop-opacity="0.662745"/><stop offset="0.341176" stop-color="#FF4552" stop-opacity="0.658823"/><stop offset="0.345098" stop-color="#FF4552" stop-opacity="0.654902"/><stop offset="0.34902" stop-color="#FF4552" stop-opacity="0.65098"/><stop offset="0.352941" stop-color="#FF4552" stop-opacity="0.647059"/><stop offset="0.356863" stop-color="#FF4552" stop-opacity="0.643137"/><stop offset="0.360784" stop-color="#FF4552" stop-opacity="0.639216"/><stop offset="0.364706" stop-color="#FF4552" stop-opacity="0.635294"/><stop offset="0.368627" stop-color="#FF4552" stop-opacity="0.631373"/><stop offset="0.372549" stop-color="#FF4552" stop-opacity="0.627451"/><stop offset="0.376471" stop-color="#FF4552" stop-opacity="0.623529"/><stop offset="0.380392" stop-color="#FF4552" stop-opacity="0.619608"/><stop offset="0.384314" stop-color="#FF4552" stop-opacity="0.615686"/><stop offset="0.388235" stop-color="#FF4552" stop-opacity="0.611765"/><stop offset="0.392157" stop-color="#FF4552" stop-opacity="0.607843"/><stop offset="0.396078" stop-color="#FF4552" stop-opacity="0.603922"/><stop offset="0.4" stop-color="#FF4552" stop-opacity="0.6"/><stop offset="0.403922" stop-color="#FF4552" stop-opacity="0.596078"/><stop offset="0.407843" stop-color="#FF4552" stop-opacity="0.592157"/><stop offset="0.411765" stop-color="#FF4552" stop-opacity="0.588235"/><stop offset="0.415686" stop-color="#FF4552" stop-opacity="0.584314"/><stop offset="0.419608" stop-color="#FF4551" stop-opacity="0.580392"/><stop offset="0.423529" stop-color="#FF4552" stop-opacity="0.576471"/><stop offset="0.427451" stop-color="#FF4552" stop-opacity="0.572549"/><stop offset="0.431373" stop-color="#FF4552" stop-opacity="0.568627"/><stop offset="0.435294" stop-color="#FF4451" stop-opacity="0.564706"/><stop offset="0.439216" stop-color="#FF4552" stop-opacity="0.560784"/><stop offset="0.443137" stop-color="#FF4552" stop-opacity="0.556863"/><stop offset="0.447059" stop-color="#FF4551" stop-opacity="0.552941"/><stop offset="0.45098" stop-color="#FF4552" stop-opacity="0.54902"/><stop offset="0.454902" stop-color="#FF4552" stop-opacity="0.545098"/><stop offset="0.458824" stop-color="#FF4552" stop-opacity="0.541176"/><stop offset="0.462745" stop-color="#FF4552" stop-opacity="0.537255"/><stop offset="0.466667" stop-color="#FF4552" stop-opacity="0.533333"/><stop offset="0.470588" stop-color="#FF4552" stop-opacity="0.529412"/><stop offset="0.47451" stop-color="#FF4552" stop-opacity="0.52549"/><stop offset="0.478431" stop-color="#FF4552" stop-opacity="0.521569"/><stop offset="0.482353" stop-color="#FF4552" stop-opacity="0.517647"/><stop offset="0.486275" stop-color="#FF4552" stop-opacity="0.513726"/><stop offset="0.490196" stop-color="#FF4552" stop-opacity="0.509804"/><stop offset="0.494118" stop-color="#FF4552" stop-opacity="0.505882"/><stop offset="0.498039" stop-color="#FF4552" stop-opacity="0.501961"/><stop offset="0.501961" stop-color="#FF4552" stop-opacity="0.498039"/><stop offset="0.505882" stop-color="#FF4552" stop-opacity="0.494118"/><stop offset="0.509804" stop-color="#FF4551" stop-opacity="0.490196"/><stop offset="0.513726" stop-color="#FF4552" stop-opacity="0.486274"/><stop offset="0.517647" stop-color="#FF4552" stop-opacity="0.482353"/><stop offset="0.521569" stop-color="#FF4552" stop-opacity="0.478431"/><stop offset="0.52549" stop-color="#FF4552" stop-opacity="0.47451"/><stop offset="0.529412" stop-color="#FF4552" stop-opacity="0.470588"/><stop offset="0.533333" stop-color="#FF4552" stop-opacity="0.466667"/><stop offset="0.537255" stop-color="#FF4552" stop-opacity="0.462745"/><stop offset="0.541176" stop-color="#FF4552" stop-opacity="0.458824"/><stop offset="0.545098" stop-color="#FF4552" stop-opacity="0.454902"/><stop offset="0.54902" stop-color="#FF4552" stop-opacity="0.45098"/><stop offset="0.552941" stop-color="#FF4451" stop-opacity="0.447059"/><stop offset="0.556863" stop-color="#FF4552" stop-opacity="0.443137"/><stop offset="0.560784" stop-color="#FF4552" stop-opacity="0.439216"/><stop offset="0.564706" stop-color="#FF4552" stop-opacity="0.435294"/><stop offset="0.568627" stop-color="#FF4552" stop-opacity="0.431373"/><stop offset="0.572549" stop-color="#FF4552" stop-opacity="0.427451"/><stop offset="0.576471" stop-color="#FF4552" stop-opacity="0.423529"/><stop offset="0.580392" stop-color="#FF4552" stop-opacity="0.419608"/><stop offset="0.584314" stop-color="#FF4451" stop-opacity="0.415686"/><stop offset="0.588235" stop-color="#FF4452" stop-opacity="0.411765"/><stop offset="0.592157" stop-color="#FF4552" stop-opacity="0.407843"/><stop offset="0.596078" stop-color="#FF4552" stop-opacity="0.403922"/><stop offset="0.6" stop-color="#FF4552" stop-opacity="0.4"/><stop offset="0.603922" stop-color="#FF4552" stop-opacity="0.396078"/><stop offset="0.607843" stop-color="#FF4552" stop-opacity="0.392157"/><stop offset="0.611765" stop-color="#FF4552" stop-opacity="0.388235"/><stop offset="0.615686" stop-color="#FF4551" stop-opacity="0.384314"/><stop offset="0.619608" stop-color="#FF4552" stop-opacity="0.380392"/><stop offset="0.623529" stop-color="#FF4551" stop-opacity="0.376471"/><stop offset="0.627451" stop-color="#FF4552" stop-opacity="0.372549"/><stop offset="0.631373" stop-color="#FF4551" stop-opacity="0.368627"/><stop offset="0.635294" stop-color="#FF4552" stop-opacity="0.364706"/><stop offset="0.639216" stop-color="#FF4552" stop-opacity="0.360784"/><stop offset="0.643137" stop-color="#FF4552" stop-opacity="0.356863"/><stop offset="0.647059" stop-color="#FF4552" stop-opacity="0.352941"/><stop offset="0.65098" stop-color="#FF4552" stop-opacity="0.34902"/><stop offset="0.654902" stop-color="#FF4551" stop-opacity="0.345098"/><stop offset="0.658824" stop-color="#FF4552" stop-opacity="0.341176"/><stop offset="0.662745" stop-color="#FF4552" stop-opacity="0.337255"/><stop offset="0.666667" stop-color="#FF4552" stop-opacity="0.333333"/><stop offset="0.670588" stop-color="#FF4552" stop-opacity="0.329412"/><stop offset="0.67451" stop-color="#FF4552" stop-opacity="0.32549"/><stop offset="0.678431" stop-color="#FF4552" stop-opacity="0.321569"/><stop offset="0.682353" stop-color="#FF4551" stop-opacity="0.317647"/><stop offset="0.686275" stop-color="#FF4552" stop-opacity="0.313725"/><stop offset="0.690196" stop-color="#FF4552" stop-opacity="0.309804"/><stop offset="0.694118" stop-color="#FF4552" stop-opacity="0.305882"/><stop offset="0.698039" stop-color="#FF4552" stop-opacity="0.301961"/><stop offset="0.701961" stop-color="#FF4552" stop-opacity="0.298039"/><stop offset="0.705882" stop-color="#FF4552" stop-opacity="0.294118"/><stop offset="0.709804" stop-color="#FF4552" stop-opacity="0.290196"/><stop offset="0.713726" stop-color="#FF4552" stop-opacity="0.286274"/><stop offset="0.717647" stop-color="#FF4552" stop-opacity="0.282353"/><stop offset="0.721569" stop-color="#FF4552" stop-opacity="0.278431"/><stop offset="0.72549" stop-color="#FF4552" stop-opacity="0.27451"/><stop offset="0.729412" stop-color="#FF4552" stop-opacity="0.270588"/><stop offset="0.733333" stop-color="#FF4552" stop-opacity="0.266667"/><stop offset="0.737255" stop-color="#FF4552" stop-opacity="0.262745"/><stop offset="0.741176" stop-color="#FF4552" stop-opacity="0.258824"/><stop offset="0.745098" stop-color="#FF4552" stop-opacity="0.254902"/><stop offset="0.74902" stop-color="#FF4552" stop-opacity="0.25098"/><stop offset="0.752941" stop-color="#FF4552" stop-opacity="0.247059"/><stop offset="0.756863" stop-color="#FF4552" stop-opacity="0.243137"/><stop offset="0.760784" stop-color="#FF4552" stop-opacity="0.239216"/><stop offset="0.764706" stop-color="#FF4552" stop-opacity="0.235294"/><stop offset="0.768627" stop-color="#FF4552" stop-opacity="0.231373"/><stop offset="0.772549" stop-color="#FF4552" stop-opacity="0.227451"/><stop offset="0.776471" stop-color="#FF4552" stop-opacity="0.223529"/><stop offset="0.780392" stop-color="#FF4552" stop-opacity="0.219608"/><stop offset="0.784314" stop-color="#FF4552" stop-opacity="0.215686"/><stop offset="0.788235" stop-color="#FF4552" stop-opacity="0.211765"/><stop offset="0.792157" stop-color="#FF4552" stop-opacity="0.207843"/><stop offset="0.796078" stop-color="#FF4552" stop-opacity="0.203922"/><stop offset="0.8" stop-color="#FF4552" stop-opacity="0.2"/><stop offset="0.803922" stop-color="#FF4552" stop-opacity="0.196078"/><stop offset="0.807843" stop-color="#FF4552" stop-opacity="0.192157"/><stop offset="0.811765" stop-color="#FF4552" stop-opacity="0.188235"/><stop offset="0.815686" stop-color="#FF4552" stop-opacity="0.184314"/><stop offset="0.819608" stop-color="#FF4552" stop-opacity="0.180392"/><stop offset="0.823529" stop-color="#FF4552" stop-opacity="0.176471"/><stop offset="0.827451" stop-color="#FF4552" stop-opacity="0.172549"/><stop offset="0.831373" stop-color="#FF4552" stop-opacity="0.168627"/><stop offset="0.835294" stop-color="#FF4552" stop-opacity="0.164706"/><stop offset="0.839216" stop-color="#FF4552" stop-opacity="0.160784"/><stop offset="0.843137" stop-color="#FF4552" stop-opacity="0.156863"/><stop offset="0.847059" stop-color="#FF4552" stop-opacity="0.152941"/><stop offset="0.85098" stop-color="#FF4552" stop-opacity="0.14902"/><stop offset="0.854902" stop-color="#FF4552" stop-opacity="0.145098"/><stop offset="0.858824" stop-color="#FF4552" stop-opacity="0.141176"/><stop offset="0.862745" stop-color="#FF4552" stop-opacity="0.137255"/><stop offset="0.866667" stop-color="#FF4552" stop-opacity="0.133333"/><stop offset="0.870588" stop-color="#FF4552" stop-opacity="0.129412"/><stop offset="0.87451" stop-color="#FF4552" stop-opacity="0.12549"/><stop offset="0.878431" stop-color="#FF4552" stop-opacity="0.121569"/><stop offset="0.882353" stop-color="#FF4552" stop-opacity="0.117647"/><stop offset="0.886275" stop-color="#FF4552" stop-opacity="0.113725"/><stop offset="0.890196" stop-color="#FF4552" stop-opacity="0.109804"/><stop offset="0.894118" stop-color="#FF4552" stop-opacity="0.105882"/><stop offset="0.898039" stop-color="#FF4552" stop-opacity="0.101961"/><stop offset="0.901961" stop-color="#FF4552" stop-opacity="0.0980392"/><stop offset="0.905882" stop-color="#FF4552" stop-opacity="0.0941176"/><stop offset="0.909804" stop-color="#FF4552" stop-opacity="0.0901961"/><stop offset="0.913725" stop-color="#FF4552" stop-opacity="0.0862745"/><stop offset="0.917647" stop-color="#FF4552" stop-opacity="0.0823529"/><stop offset="0.921569" stop-color="#FF4552" stop-opacity="0.0784314"/><stop offset="0.92549" stop-color="#FF4552" stop-opacity="0.0745098"/><stop offset="0.929412" stop-color="#FF4552" stop-opacity="0.0705882"/><stop offset="0.933333" stop-color="#FF4552" stop-opacity="0.0666667"/><stop offset="0.937255" stop-color="#FF4552" stop-opacity="0.0627451"/><stop offset="0.941176" stop-color="#FF4552" stop-opacity="0.0588235"/><stop offset="0.945098" stop-color="#FF4552" stop-opacity="0.054902"/><stop offset="0.94902" stop-color="#FF4552" stop-opacity="0.0509804"/><stop offset="0.952941" stop-color="#FF4552" stop-opacity="0.0470588"/><stop offset="0.956863" stop-color="#FF4552" stop-opacity="0.0431373"/><stop offset="0.960784" stop-color="#FF4552" stop-opacity="0.0392157"/><stop offset="0.964706" stop-color="#FF4552" stop-opacity="0.0352941"/><stop offset="0.968627" stop-color="#FF4552" stop-opacity="0.0313725"/><stop offset="0.972549" stop-color="#FF4552" stop-opacity="0.027451"/><stop offset="0.976471" stop-color="#FF4552" stop-opacity="0.0235294"/><stop offset="0.980392" stop-color="#FF4552" stop-opacity="0.0196078"/><stop offset="0.984314" stop-color="#FF4552" stop-opacity="0.0156863"/><stop offset="0.988235" stop-color="#FF4552" stop-opacity="0.0117647"/><stop offset="0.992157" stop-color="#FF4552" stop-opacity="0.00784314"/><stop offset="0.996078" stop-color="#FF4552" stop-opacity="0.00392157"/><stop offset="1" stop-color="#FF4552" stop-opacity="0"/></linearGradient><linearGradient x1="675.462" y1="576.435" x2="635.905" y2="471.447" gradientUnits="userSpaceOnUse" spreadMethod="reflect" id="fill2"><stop offset="0" stop-color="#FF4552" stop-opacity="0"/><stop offset="0.25" stop-color="#FF4552"/><stop offset="1" stop-color="#FF4552"/></linearGradient><linearGradient x1="531.625" y1="495.831" x2="499.941" y2="578.595" gradientUnits="userSpaceOnUse" spreadMethod="reflect" id="fill3"><stop offset="0" stop-color="#FF4552" stop-opacity="0"/><stop offset="0.07" stop-color="#FF4552" stop-opacity="0"/><stop offset="0.4" stop-color="#FF4552"/><stop offset="1" stop-color="#FF4552"/></linearGradient><linearGradient x1="531.625" y1="495.831" x2="499.941" y2="578.595" gradientUnits="userSpaceOnUse" spreadMethod="reflect" id="fill4"><stop offset="0" stop-color="#FF4552" stop-opacity="0"/><stop offset="0.07" stop-color="#FF4552" stop-opacity="0"/><stop offset="0.4" stop-color="#FF4552"/><stop offset="1" stop-color="#FF4552"/></linearGradient><linearGradient x1="531.625" y1="495.831" x2="499.941" y2="578.595" gradientUnits="userSpaceOnUse" spreadMethod="reflect" id="fill5"><stop offset="0" stop-color="#FF4552" stop-opacity="0"/><stop offset="0.07" stop-color="#FF4552" stop-opacity="0"/><stop offset="0.4" stop-color="#FF4552"/><stop offset="1" stop-color="#FF4552"/></linearGradient><linearGradient x1="376" y1="360.5" x2="515" y2="360.5" gradientUnits="userSpaceOnUse" spreadMethod="reflect" id="fill6"><stop offset="0" stop-color="#FF4552" stop-opacity="0"/><stop offset="0.04" stop-color="#FF4552" stop-opacity="0"/><stop offset="0.26" stop-color="#FF4552"/><stop offset="1" stop-color="#FF4552"/></linearGradient><linearGradient x1="376" y1="360.5" x2="515" y2="360.5" gradientUnits="userSpaceOnUse" spreadMethod="reflect" id="fill7"><stop offset="0" stop-color="#FF4552" stop-opacity="0"/><stop offset="0.04" stop-color="#FF4552" stop-opacity="0"/><stop offset="0.26" stop-color="#FF4552"/><stop offset="1" stop-color="#FF4552"/></linearGradient><linearGradient x1="376" y1="360.5" x2="515" y2="360.5" gradientUnits="userSpaceOnUse" spreadMethod="reflect" id="fill8"><stop offset="0" stop-color="#FF4552" stop-opacity="0"/><stop offset="0.04" stop-color="#FF4552" stop-opacity="0"/><stop offset="0.26" stop-color="#FF4552"/><stop offset="1" stop-color="#FF4552"/></linearGradient></defs><g clip-path="url(#clip0)" transform="translate(-376 -126)"><rect x="426" y="171" width="366" height="367" stroke="#000000" stroke-width="4" stroke-miterlimit="8" fill="none"/><path d="M735.826 369.993 815.217 375.984 814.712 382.677 735.321 376.686Z" fill="#FF4552" fill-rule="evenodd"/><path d="M735.754 371.847 788.296 433.179 782.975 437.737 730.434 376.405Z" fill="url(#fill1)" fill-rule="evenodd"/><path d="M699.781 241.94 739.168 153.441 745.581 156.296 706.195 244.795Z" fill="#FF4552" fill-rule="evenodd"/><path d="M627.149 223.294 680.372 151.351 686.479 155.869 633.257 227.813Z" fill="#FF4552" fill-rule="evenodd"/><path d="M631.933 470.49 624.065 556.406 617.092 555.767 624.961 469.852Z" fill="#FF4552" fill-rule="evenodd"/><path d="M672.198 577.665 632.641 472.677 639.17 470.218 678.726 575.205Z" fill="url(#fill2)" fill-rule="evenodd"/><path d="M533.388 571.537 519.667 586.078 519.164 566.092 523.021 567.568 523.495 566.898C525.543 564.099 527.591 561.3 527.084 557.523 526.07 549.97 535.275 546.328 534.262 538.774 533.248 531.22 542.453 527.579 541.439 520.025 540.679 514.36 545.667 510.895 547.781 506.33L548.351 504.578 549.117 503.946C550.052 503.427 551.12 503.294 552.1 503.669 553.08 504.045 553.787 504.857 554.136 505.867L554.381 507.486 554.375 507.511C552.669 512.68 546.747 516.235 547.57 522.372 548.584 529.926 539.379 533.568 540.393 541.121 541.406 548.675 532.201 552.317 533.215 559.87 533.722 563.647 531.674 566.446 529.626 569.245L529.152 569.915Z" fill="url(#fill3)" fill-rule="evenodd"/><path d="M513.694 563.998 499.973 578.538 499.469 558.552 503.326 560.029 503.801 559.358C505.849 556.559 507.896 553.76 507.39 549.984 506.376 542.43 515.581 538.788 514.567 531.234 513.554 523.681 522.759 520.039 521.745 512.485 520.985 506.82 525.973 503.355 528.086 498.79L528.656 497.038 529.423 496.406C530.358 495.888 531.426 495.755 532.406 496.13 533.386 496.505 534.092 497.317 534.442 498.328L534.686 499.946 534.681 499.971C532.975 505.14 527.053 508.695 527.876 514.832 528.89 522.386 519.685 526.028 520.698 533.581 521.712 541.135 512.507 544.777 513.521 552.331 514.027 556.108 511.98 558.906 509.932 561.705L509.457 562.376Z" fill="url(#fill4)" fill-rule="evenodd"/><path d="M493.958 556.512 480.237 571.052 479.733 551.066 483.591 552.542 484.065 551.872C486.113 549.073 488.16 546.274 487.654 542.497 486.64 534.944 495.845 531.302 494.831 523.748 493.818 516.195 503.023 512.553 502.009 504.999 501.249 499.334 506.237 495.869 508.35 491.304L508.92 489.552 509.687 488.92C510.622 488.401 511.69 488.268 512.67 488.644 513.65 489.019 514.356 489.831 514.706 490.842L514.95 492.46 514.945 492.485C513.239 497.654 507.317 501.209 508.14 507.346 509.154 514.9 499.949 518.542 500.962 526.095 501.976 533.649 492.771 537.291 493.785 544.845 494.291 548.621 492.244 551.42 490.196 554.219L489.721 554.89Z" fill="url(#fill5)" fill-rule="evenodd"/><path d="M604.566 415.191 603.988 415.371 604.542 415.427ZM506.534 222.214 506.447 222.374 506.7 222.519ZM478.256 190.5C485.301 190.5 491.012 196.206 491.012 203.246L490.938 204.422 492.693 203.877C493.523 203.707 494.383 203.618 495.264 203.618 499.667 203.618 503.549 205.847 505.841 209.238L506.372 210.215 507.065 208.94C509.357 205.549 513.239 203.32 517.642 203.32 519.404 203.32 521.082 203.677 522.608 204.322L522.857 204.457 523.043 204.304C525.079 202.93 527.533 202.128 530.175 202.128 534.137 202.128 537.678 203.933 540.018 206.766L540.626 207.621 540.848 207.351C543.157 205.045 546.345 203.618 549.868 203.618 555.152 203.618 559.685 206.828 561.621 211.403L561.88 212.237 561.918 212.225C562.748 212.055 563.608 211.966 564.489 211.966 570.653 211.966 575.796 216.335 576.985 222.143L577.081 223.094 578.696 223.256C584.509 224.445 588.882 229.584 588.882 235.743 588.882 240.142 586.651 244.021 583.258 246.312L582.103 246.938 582.988 246.849C585.63 246.849 588.084 247.651 590.12 249.025L590.885 249.656 591.449 248.938C592.684 247.58 594.209 246.489 595.926 245.764L597.927 245.143 597.773 244.956C596.398 242.922 595.595 240.47 595.595 237.83 595.595 230.791 601.306 225.084 608.351 225.084 610.112 225.084 611.79 225.441 613.316 226.086L613.464 226.167 613.605 225.713C615.542 221.139 620.075 217.929 625.359 217.929 632.403 217.929 638.115 223.635 638.115 230.675 638.115 237.714 632.403 243.42 625.359 243.42 623.597 243.42 621.92 243.064 620.393 242.419L620.245 242.338 620.104 242.791C618.652 246.222 615.739 248.885 612.144 250.003L611.314 250.194 611.469 250.381C612.5 251.907 613.21 253.668 613.5 255.566L613.564 256.409 614.808 256.795 616.639 257.788 618.227 256.479C620.263 255.105 622.717 254.303 625.359 254.303 632.403 254.303 638.115 260.009 638.115 267.048 638.115 269.688 637.311 272.14 635.936 274.174L635.147 275.13 635.638 275.723C637.013 277.758 637.816 280.21 637.816 282.85 637.816 289.009 633.444 294.148 627.631 295.336L627.033 295.396 627.564 296.373C628.209 297.898 628.566 299.575 628.566 301.334 628.566 308.374 622.855 314.08 615.81 314.08L614.732 313.971 615.646 315.078C617.021 317.112 617.824 319.565 617.824 322.204 617.824 323.964 617.467 325.641 616.822 327.166L616.304 328.119 616.576 328.143C619.783 328.715 622.574 330.484 624.471 332.971L624.629 333.214 626.369 332.675C627.199 332.505 628.059 332.416 628.939 332.416 631.581 332.416 634.035 333.218 636.071 334.592L636.207 334.705 636.434 332.456C636.944 329.967 638.18 327.742 639.911 326.012L640.993 325.121 639.71 324.425C636.317 322.135 634.086 318.256 634.086 313.856 634.086 306.817 639.797 301.111 646.842 301.111L648.764 301.304 648.707 300.738C648.707 298.979 649.064 297.302 649.709 295.777L650.473 294.372 650.289 294.15C648.914 292.116 648.11 289.664 648.11 287.024 648.11 284.384 648.914 281.932 650.289 279.898L650.355 279.818 650.363 279.735 649.161 278.744C646.853 276.438 645.425 273.251 645.425 269.732 645.425 264.452 648.637 259.922 653.216 257.988L654.805 257.494 654.675 256.017C654.675 248.978 660.386 243.271 667.431 243.271L669.624 243.492 669.594 243.197C669.594 236.158 675.305 230.451 682.35 230.451 686.753 230.451 690.635 232.68 692.927 236.071L693.575 237.263 694.393 236.819C695.919 236.175 697.596 235.818 699.358 235.818 706.403 235.818 712.114 241.524 712.114 248.564 712.114 255.603 706.403 261.309 699.358 261.309 694.955 261.309 691.073 259.08 688.78 255.69L688.133 254.497 687.315 254.941C685.789 255.586 684.111 255.943 682.35 255.943L680.157 255.722 680.187 256.017C680.187 257.777 679.83 259.453 679.184 260.978L679.038 261.247 680.743 261.419C686.556 262.607 690.928 267.746 690.928 273.905 690.928 277.425 689.501 280.612 687.192 282.918L685.951 283.941 687.308 284.078C689.799 284.587 692.025 285.822 693.757 287.552L694.327 288.243 694.765 286.833C696.702 282.258 701.235 279.049 706.519 279.049 712.683 279.049 717.826 283.418 719.016 289.225L719.053 289.596 719.08 289.573C721.116 288.199 723.57 287.396 726.212 287.396 733.257 287.396 738.968 293.103 738.968 300.142 738.968 303.662 737.54 306.848 735.232 309.155L734.468 309.785 735.28 311.281C735.926 312.805 736.283 314.482 736.283 316.242 736.283 321.521 733.07 326.051 728.492 327.986L726.334 328.655 726.774 330.071C726.943 330.901 727.033 331.76 727.033 332.64 727.033 334.399 726.676 336.076 726.03 337.601L725.159 339.205 726.877 340.621C729.186 342.928 730.613 346.114 730.613 349.634 730.613 353.153 729.186 356.34 726.877 358.646L726.629 358.851 728.599 358.652C735.644 358.652 741.355 364.359 741.355 371.398 741.355 378.437 735.644 384.143 728.599 384.143 722.435 384.143 717.292 379.775 716.102 373.967L715.906 372.015 714.162 372.556C713.332 372.725 712.472 372.814 711.591 372.814 706.307 372.814 701.774 369.605 699.838 365.03L699.329 363.392 698.135 364.377C696.099 365.751 693.645 366.553 691.003 366.553 687.701 366.553 684.691 365.3 682.426 363.242L680.566 361.096 680.436 361.136 680.636 362.003C680.733 362.636 680.783 363.285 680.783 363.945 680.783 365.704 680.426 367.381 679.781 368.906L678.687 370.919 679.856 371.282C681.572 372.007 683.097 373.098 684.333 374.456L685.093 375.423 687.231 374.263C688.757 373.618 690.435 373.262 692.196 373.262 699.241 373.262 704.952 378.968 704.952 386.007 704.952 391.286 701.74 395.816 697.162 397.751L696.685 397.899 697.533 402.094 697.305 403.222 697.376 403.183C698.902 402.538 700.58 402.181 702.341 402.181 709.386 402.181 715.097 407.888 715.097 414.927 715.097 419.326 712.866 423.205 709.473 425.496L708.007 426.291 708.741 427.18C710.117 429.214 710.92 431.667 710.92 434.306L710.872 434.786 712.303 434.342C713.133 434.172 713.993 434.083 714.874 434.083 721.918 434.083 727.629 439.789 727.629 446.828L727.562 447.499 729.609 446.864C730.439 446.694 731.299 446.605 732.18 446.605 739.224 446.605 744.935 452.311 744.935 459.35 744.935 461.99 744.132 464.442 742.757 466.476L742.421 466.884 743.709 467.284C748.288 469.219 751.5 473.748 751.5 479.028 751.5 486.067 745.789 491.773 738.744 491.773 731.699 491.773 725.988 486.067 725.988 479.028 725.988 476.388 726.791 473.936 728.167 471.902L728.503 471.494 727.214 471.094C722.636 469.159 719.424 464.63 719.424 459.35L719.491 458.68 717.444 459.315C716.614 459.485 715.754 459.574 714.874 459.574 710.47 459.574 706.589 457.345 704.296 453.954L704.024 453.453 702.831 454.1C701.305 454.745 699.627 455.102 697.866 455.102 694.343 455.102 691.154 453.675 688.846 451.369L687.672 449.947 686.527 450.033C679.482 450.033 673.771 444.327 673.771 437.288 673.771 434.648 674.574 432.196 675.95 430.162L676.252 429.796 675.49 428.997C674.711 428.053 674.064 426.995 673.58 425.851L672.938 423.783 671.469 424.627C669.796 425.432 667.92 425.884 665.939 425.884 658.894 425.884 653.183 420.177 653.183 413.138 653.183 411.378 653.54 409.702 654.185 408.177L654.833 406.985 654.331 406.713C650.938 404.422 648.707 400.544 648.707 396.144 648.707 389.105 654.418 383.398 661.463 383.398L662.179 383.471 662.134 383.026C662.134 381.266 662.491 379.589 663.137 378.065L664.231 376.051 663.062 375.688C658.484 373.754 655.272 369.224 655.272 363.945 655.272 363.065 655.361 362.206 655.531 361.376L655.78 360.574 654.143 359.93C653.585 359.661 653.05 359.354 652.541 359.01L651.674 358.296 651.435 359.067C649.498 363.642 644.965 366.852 639.681 366.852 638.8 366.852 637.941 366.762 637.11 366.593L635.711 366.159 635.727 366.329C635.727 373.369 630.016 379.075 622.972 379.075L622.221 378.999 622.489 379.86C622.659 380.69 622.748 381.549 622.748 382.429 622.748 387.709 619.535 392.238 614.957 394.173L614.578 394.291 614.432 395.731C614.262 396.561 614.012 397.361 613.689 398.123L613.136 399.141 613.537 400.432C613.707 401.262 613.796 402.121 613.796 403.001L613.629 404.66 614.895 404.318C615.628 404.187 616.383 404.119 617.153 404.119 624.198 404.119 629.909 409.825 629.909 416.865 629.909 422.144 626.697 426.674 622.118 428.608L621.807 428.705 622.641 430.239C623.286 431.764 623.643 433.441 623.643 435.2 623.643 435.86 623.593 436.508 623.496 437.141L623.217 438.353 625.657 438.107C631.821 438.107 636.964 442.476 638.154 448.284L638.32 449.928 639.503 450.57C642.896 452.86 645.127 456.739 645.127 461.139 645.127 468.178 639.416 473.884 632.371 473.884 626.206 473.884 621.063 469.515 619.874 463.707L619.708 462.063 618.525 461.422C617.847 460.964 617.214 460.442 616.637 459.865L616.4 459.578 614.957 460.361C613.431 461.006 611.753 461.362 609.992 461.362 604.708 461.362 600.175 458.153 598.238 453.578L598.055 452.987 596.45 453.501 595.181 453.629 593.922 455.398C593.236 456.152 592.46 456.824 591.612 457.397L590.235 458.143 590.375 458.75C590.472 459.383 590.522 460.032 590.522 460.691 590.522 463.331 589.719 465.783 588.344 467.818L586.975 469.476 587.282 470.041C587.928 471.566 588.285 473.243 588.285 475.002 588.285 476.982 587.833 478.856 587.027 480.528L586.166 482.025 586.786 482.537C587.94 483.69 588.875 485.063 589.52 486.588L590.204 488.79 591.029 489.79C592.405 491.824 593.208 494.276 593.208 496.916 593.208 499.555 592.405 502.008 591.029 504.042L590.334 504.884 590.522 506.754C590.522 513.794 584.811 519.5 577.767 519.5 570.722 519.5 565.011 513.794 565.011 506.754L565.143 505.447 564.454 505.377C561.963 504.868 559.736 503.633 558.005 501.903L557.241 500.978 555.388 501.164C548.343 501.164 542.632 495.458 542.632 488.419 542.632 481.379 548.343 475.673 555.388 475.673 558.03 475.673 560.484 476.476 562.52 477.85L563.325 478.514 563.032 477.571C562.862 476.741 562.773 475.882 562.773 475.002 562.773 472.363 563.576 469.91 564.951 467.876L566.32 466.218 566.013 465.653C565.368 464.128 565.011 462.451 565.011 460.691 565.011 458.932 565.368 457.255 566.013 455.73L567.058 453.806 565.917 453.634C564.719 453.262 563.596 452.717 562.578 452.03L561.206 450.899 559.834 452.03C557.798 453.404 555.344 454.207 552.702 454.207 545.657 454.207 539.946 448.501 539.946 441.461 539.946 439.702 540.303 438.025 540.949 436.5L540.981 436.441 540.749 436.249 539.935 436.64C538.737 437.012 537.463 437.213 536.142 437.213L535.206 437.118 535.144 437.347C533.642 441.446 530.093 444.56 525.733 445.451L524.416 445.584 525.069 446.786C525.715 448.311 526.072 449.987 526.072 451.747 526.072 453.507 525.715 455.184 525.069 456.708L524.624 457.528 525.365 459.912C525.535 460.741 525.624 461.6 525.624 462.48 525.624 469.52 519.913 475.226 512.868 475.226L511.311 475.069 511.049 475.285C509.013 476.66 506.558 477.462 503.917 477.462 496.872 477.462 491.161 471.756 491.161 464.716 491.161 459.437 494.373 454.907 498.951 452.972L500.631 452.452 500.56 451.747C500.56 449.987 500.917 448.311 501.562 446.786L502.375 445.29 501.611 444.66C499.302 442.354 497.874 439.167 497.874 435.648 497.874 431.248 500.105 427.369 503.498 425.079L504.718 424.417 504.588 423.126C504.588 416.086 510.299 410.38 517.344 410.38 521.197 410.38 524.65 412.087 526.989 414.785L527.345 415.271 529.01 413.898C531.046 412.524 533.5 411.722 536.142 411.722L538.553 411.965 538.711 411.456C540.648 406.882 545.181 403.672 550.464 403.672 557.509 403.672 563.22 409.378 563.22 416.417 563.22 418.177 562.863 419.854 562.218 421.379L561.292 423.083 561.618 424.135C561.788 424.964 561.878 425.823 561.878 426.703 561.878 428.463 561.521 430.139 560.875 431.664L560.843 431.724 561.206 432.024 562.578 430.892C564.614 429.518 567.068 428.716 569.71 428.716 574.113 428.716 577.995 430.945 580.288 434.335L580.524 434.771 581.909 434.341 583.122 434.219 583.302 433.888C584.448 432.193 585.992 430.788 587.799 429.807L590.59 428.71 590.522 428.045C590.522 422.765 593.735 418.236 598.313 416.301L600.331 415.675 598.47 415.488C592.657 414.299 588.285 409.16 588.285 403.001 588.285 401.241 588.641 399.565 589.287 398.04L589.84 397.022 589.439 395.731C589.269 394.901 589.18 394.042 589.18 393.162 589.18 387.883 592.392 383.353 596.97 381.418L597.35 381.301 597.495 379.86C598.685 374.053 603.828 369.684 609.992 369.684L610.742 369.759 610.475 368.898C610.305 368.068 610.216 367.209 610.216 366.329 610.216 364.57 610.573 362.893 611.218 361.368L611.844 360.216 610.17 359.308C607.201 357.304 605.122 354.083 604.649 350.362L604.55 348.795 603.741 347.815C602.366 345.781 601.562 343.329 601.562 340.689 601.562 338.929 601.919 337.253 602.565 335.728L603.095 334.751 602.498 334.691C596.685 333.503 592.313 328.364 592.313 322.204 592.313 321.325 592.402 320.465 592.572 319.636L592.852 318.732 591.458 318.591C586.372 317.551 582.388 313.487 581.472 308.361L581.409 307.647 579.706 307.819C577.945 307.819 576.267 307.462 574.741 306.817L574.298 306.577 573.276 308.46C570.983 311.851 567.101 314.08 562.698 314.08 558.295 314.08 554.413 311.851 552.121 308.46L551.198 306.761 550.598 307.864C548.879 310.407 546.266 312.296 543.209 313.082L542.166 313.282 541.928 314.047C539.991 318.622 535.458 321.832 530.174 321.832 523.129 321.832 517.418 316.125 517.418 309.086 517.418 302.927 521.791 297.788 527.604 296.599L528.025 296.557 528.268 295.777C529.72 292.346 532.633 289.683 536.228 288.565L537.967 288.165 537.669 287.207C537.499 286.377 537.41 285.518 537.41 284.638 537.41 283.758 537.499 282.899 537.669 282.07L537.761 281.773 536.257 281.622C533.35 281.027 530.804 279.446 528.984 277.242L528.507 276.554 527.68 277.003C526.154 277.648 524.476 278.005 522.715 278.005 515.67 278.005 509.959 272.298 509.959 265.259L510.042 264.166 509.768 263.661C509.122 262.136 508.765 260.46 508.765 258.7 508.765 256.94 509.122 255.264 509.768 253.739L509.883 253.527 507.612 253.298C503.979 252.555 500.909 250.269 499.117 247.156L498.556 245.954 497.467 245.845C493.108 244.953 489.558 241.84 488.056 237.74L487.791 236.758 487.775 236.771C485.739 238.146 483.285 238.948 480.643 238.948 473.598 238.948 467.887 233.242 467.887 226.203 467.887 221.803 470.118 217.924 473.511 215.634L474.186 215.267 473.291 214.99C468.713 213.055 465.5 208.525 465.5 203.246 465.5 196.206 471.211 190.5 478.256 190.5Z" stroke="#000000" stroke-width="2.5" stroke-linecap="round" stroke-linejoin="round" stroke-miterlimit="10" fill-rule="evenodd"/><path d="M614.428 571.411C613.441 569.069 614.538 566.371 616.879 565.384 619.221 564.397 621.919 565.494 622.906 567.836 623.893 570.177 622.796 572.875 620.454 573.862 618.113 574.849 615.415 573.752 614.428 571.411Z" stroke="#000000" stroke-width="2.5" stroke-miterlimit="8" fill-rule="evenodd"/><path d="M615.977 559.913C614.99 557.572 616.088 554.874 618.429 553.887 620.77 552.9 623.468 553.997 624.455 556.339 625.443 558.68 624.345 561.378 622.004 562.365 619.662 563.352 616.964 562.255 615.977 559.913Z" stroke="#000000" stroke-width="2.5" stroke-miterlimit="8" fill-rule="evenodd"/><path d="M0 0 6.03827 10.3513" stroke="#000000" stroke-width="2.5" stroke-miterlimit="8" fill-rule="evenodd" transform="matrix(-0.921438 0.388524 0.388524 0.921438 620.188 558.06)"/><path d="M678.252 558.502C680.217 560.112 680.504 563.011 678.893 564.976 677.282 566.941 674.383 567.228 672.418 565.618 670.453 564.007 670.166 561.108 671.777 559.143 673.388 557.178 676.287 556.891 678.252 558.502Z" stroke="#000000" stroke-width="2.5" stroke-miterlimit="8" fill-rule="evenodd"/><path d="M681.192 570.676C682.45 571.707 682.633 573.562 681.603 574.819 680.572 576.077 678.717 576.261 677.459 575.23 676.202 574.199 676.018 572.344 677.049 571.086 678.08 569.829 679.935 569.645 681.192 570.676Z" stroke="#000000" stroke-width="2.5" stroke-miterlimit="8" fill-rule="evenodd"/><path d="M0 0 6.03827 10.3513" stroke="#000000" stroke-width="2.5" stroke-miterlimit="8" fill-rule="evenodd" transform="matrix(0.633957 -0.773369 -0.773369 -0.633957 679.381 572.998)"/><path d="M670.492 586.406C668.505 584.823 668.177 581.929 669.76 579.941 671.343 577.954 674.238 577.626 676.225 579.209 678.212 580.792 678.54 583.687 676.957 585.674 675.374 587.662 672.479 587.989 670.492 586.406Z" stroke="#000000" stroke-width="2.5" stroke-miterlimit="8" fill-rule="evenodd"/><path d="M667.381 574.274C666.11 573.261 665.9 571.409 666.913 570.137 667.926 568.865 669.779 568.655 671.05 569.669 672.322 570.682 672.532 572.534 671.519 573.806 670.506 575.078 668.653 575.288 667.381 574.274Z" stroke="#000000" stroke-width="2.5" stroke-miterlimit="8" fill-rule="evenodd"/><path d="M0 0 6.03827 10.3513" stroke="#000000" stroke-width="2.5" stroke-miterlimit="8" fill-rule="evenodd" transform="matrix(-0.623079 0.782159 0.782159 0.623079 669.16 571.927)"/><path d="M739.162 153.119C738.956 150.587 740.842 148.366 743.374 148.16 745.906 147.954 748.127 149.839 748.333 152.372 748.54 154.904 746.654 157.124 744.121 157.331 741.589 157.537 739.369 155.652 739.162 153.119Z" stroke="#000000" stroke-width="2.5" stroke-miterlimit="8" fill-rule="evenodd"/><path d="M744.226 142.681C744.019 140.149 745.905 137.929 748.437 137.722 750.97 137.516 753.19 139.402 753.396 141.934 753.603 144.466 751.717 146.687 749.185 146.893 746.652 147.1 744.432 145.214 744.226 142.681Z" stroke="#000000" stroke-width="2.5" stroke-miterlimit="8" fill-rule="evenodd"/><path d="M0 0 6.03827 10.3513" stroke="#000000" stroke-width="2.5" stroke-miterlimit="8" fill-rule="evenodd" transform="matrix(-0.996695 0.0812305 0.0812305 0.996695 748.805 142.236)"/><path d="M680.832 151.253C681.031 148.72 683.246 146.828 685.779 147.027 688.312 147.226 690.204 149.441 690.005 151.974 689.807 154.507 687.592 156.399 685.059 156.2 682.526 156.001 680.633 153.786 680.832 151.253Z" stroke="#000000" stroke-width="2.5" stroke-miterlimit="8" fill-rule="evenodd"/><path d="M687.412 141.634C687.611 139.101 689.825 137.208 692.358 137.407 694.891 137.606 696.784 139.821 696.585 142.354 696.386 144.887 694.171 146.779 691.638 146.58 689.105 146.381 687.213 144.167 687.412 141.634Z" stroke="#000000" stroke-width="2.5" stroke-miterlimit="8" fill-rule="evenodd"/><path d="M0 0 21.7924 8.92945" stroke="#000000" stroke-width="2.5" stroke-miterlimit="8" fill-rule="evenodd" transform="matrix(-0.833377 0.552706 0.552706 0.833377 698.479 132.402)"/><path d="M694.013 132.339C694.212 129.806 696.427 127.913 698.96 128.112 701.493 128.311 703.385 130.526 703.186 133.059 702.987 135.592 700.773 137.484 698.24 137.285 695.706 137.086 693.814 134.872 694.013 132.339Z" stroke="#000000" stroke-width="2.5" stroke-miterlimit="8" fill-rule="evenodd"/><path d="M813.74 374.847C816.042 373.772 818.78 374.767 819.855 377.069 820.93 379.371 819.935 382.109 817.633 383.184 815.331 384.259 812.593 383.264 811.518 380.962 810.443 378.66 811.437 375.922 813.74 374.847Z" stroke="#000000" stroke-width="2.5" stroke-miterlimit="8" fill-rule="evenodd"/><path d="M825.287 375.96C827.589 374.885 830.327 375.88 831.402 378.182 832.477 380.484 831.482 383.222 829.18 384.297 826.878 385.372 824.14 384.377 823.065 382.075 821.99 379.773 822.985 377.035 825.287 375.96Z" stroke="#000000" stroke-width="2.5" stroke-miterlimit="8" fill-rule="evenodd"/><path d="M0 0 6.03827 10.3513" stroke="#000000" stroke-width="2.5" stroke-miterlimit="8" fill-rule="evenodd" transform="matrix(-0.42312 -0.906074 -0.906074 0.42312 827.299 380.098)"/><path d="M485.986 318 515 329.5 485.986 341 485.986 334.764 484.737 334.457C479.485 333.08 474.233 331.703 468.981 334.457 458.477 339.964 447.973 328.949 437.469 334.457 426.965 339.964 416.461 328.949 405.958 334.457 398.08 338.587 390.202 333.424 382.324 332.908L379.436 333.05 378.079 332.31C376.795 331.272 376 329.837 376 328.252 376 326.668 376.795 325.233 378.079 324.195L380.315 322.976 380.354 322.97C388.889 322.586 397.423 329.018 405.958 324.543 416.461 319.036 426.965 330.051 437.469 324.543 447.973 319.036 458.477 330.051 468.981 324.543 474.233 321.79 479.485 323.167 484.737 324.543L485.986 324.85Z" fill="url(#fill6)" fill-rule="evenodd"/><path d="M485.986 349 515 360.5 485.986 372 485.986 365.764 484.737 365.457C479.485 364.08 474.233 362.703 468.981 365.457 458.477 370.964 447.973 359.949 437.469 365.457 426.965 370.964 416.461 359.949 405.958 365.457 398.08 369.587 390.202 364.424 382.324 363.908L379.436 364.05 378.079 363.31C376.795 362.272 376 360.837 376 359.252 376 357.668 376.795 356.233 378.079 355.195L380.315 353.976 380.354 353.97C388.889 353.586 397.423 360.018 405.958 355.543 416.461 350.036 426.965 361.051 437.469 355.543 447.973 350.036 458.477 361.051 468.981 355.543 474.233 352.79 479.485 354.167 484.737 355.543L485.986 355.85Z" fill="url(#fill7)" fill-rule="evenodd"/><path d="M485.986 381 515 392 485.986 403 485.986 397.035 484.737 396.741C479.485 395.424 474.233 394.107 468.981 396.741 458.477 402.009 447.973 391.473 437.469 396.741 426.965 402.009 416.461 391.473 405.958 396.741 398.08 400.692 390.202 395.753 382.324 395.259L379.436 395.395 378.079 394.688C376.795 393.695 376 392.322 376 390.807 376 389.291 376.795 387.919 378.079 386.925L380.315 385.76 380.354 385.754C388.889 385.386 397.423 391.539 405.958 387.259 416.461 381.991 426.965 392.527 437.469 387.259 447.973 381.991 458.477 392.527 468.981 387.259 474.233 384.625 479.485 385.942 484.737 387.259L485.986 387.553Z" fill="url(#fill8)" fill-rule="evenodd"/><path d="M726 479C726 472.373 731.373 467 738 467 744.627 467 750 472.373 750 479 750 485.627 744.627 491 738 491 731.373 491 726 485.627 726 479Z" stroke="#FFFFFF" stroke-width="1.5" stroke-miterlimit="8" fill="none" fill-rule="evenodd"/><path d="M730 479C730 474.582 733.582 471 738 471 742.418 471 746 474.582 746 479 746 483.418 742.418 487 738 487 733.582 487 730 483.418 730 479Z" stroke="#FFFFFF" stroke-width="1.5" stroke-miterlimit="8" fill="none" fill-rule="evenodd"/><path d="M731 452 734.953 452" stroke="#FFFFFF" stroke-width="1.5" stroke-linecap="round" stroke-linejoin="round" stroke-miterlimit="10" fill="none" fill-rule="evenodd"/><path d="M731 450 734.953 450" stroke="#FFFFFF" stroke-width="1.5" stroke-linecap="round" stroke-linejoin="round" stroke-miterlimit="10" fill="none" fill-rule="evenodd"/><path d="M731 448 734.953 448" stroke="#FFFFFF" stroke-width="1.5" stroke-linecap="round" stroke-linejoin="round" stroke-miterlimit="10" fill="none" fill-rule="evenodd"/><path d="M737.184 454.067 739.161 457.491" stroke="#FFFFFF" stroke-width="1.5" stroke-linecap="round" stroke-linejoin="round" stroke-miterlimit="10" fill="none" fill-rule="evenodd"/><path d="M738.896 453.079 740.872 456.503" stroke="#FFFFFF" stroke-width="1.5" stroke-linecap="round" stroke-linejoin="round" stroke-miterlimit="10" fill="none" fill-rule="evenodd"/><path d="M740.608 452.091 742.584 455.514" stroke="#FFFFFF" stroke-width="1.5" stroke-linecap="round" stroke-linejoin="round" stroke-miterlimit="10" fill="none" fill-rule="evenodd"/><path d="M719.357 458.228 720.089 462.113" stroke="#FFFFFF" stroke-width="1.5" stroke-linecap="round" stroke-linejoin="round" stroke-miterlimit="10" fill="none" fill-rule="evenodd"/><path d="M721.299 457.862 722.032 461.747" stroke="#FFFFFF" stroke-width="1.5" stroke-linecap="round" stroke-linejoin="round" stroke-miterlimit="10" fill="none" fill-rule="evenodd"/><path d="M723.241 457.495 723.974 461.38" stroke="#FFFFFF" stroke-width="1.5" stroke-linecap="round" stroke-linejoin="round" stroke-miterlimit="10" fill="none" fill-rule="evenodd"/><path d="M725.159 455.183 727.718 452.17" stroke="#FFFFFF" stroke-width="1.5" stroke-linecap="round" stroke-linejoin="round" stroke-miterlimit="10" fill="none" fill-rule="evenodd"/><path d="M723.652 453.904 726.212 450.891" stroke="#FFFFFF" stroke-width="1.5" stroke-linecap="round" stroke-linejoin="round" stroke-miterlimit="10" fill="none" fill-rule="evenodd"/><path d="M722.146 452.624 724.705 449.611" stroke="#FFFFFF" stroke-width="1.5" stroke-linecap="round" stroke-linejoin="round" stroke-miterlimit="10" fill="none" fill-rule="evenodd"/><path d="M731.497 462.092 734.018 459.047" stroke="#FFFFFF" stroke-width="1.5" stroke-linecap="round" stroke-linejoin="round" stroke-miterlimit="10" fill="none" fill-rule="evenodd"/><path d="M729.974 460.831 732.495 457.786" stroke="#FFFFFF" stroke-width="1.5" stroke-linecap="round" stroke-linejoin="round" stroke-miterlimit="10" fill="none" fill-rule="evenodd"/><path d="M728.451 459.571 730.973 456.526" stroke="#FFFFFF" stroke-width="1.5" stroke-linecap="round" stroke-linejoin="round" stroke-miterlimit="10" fill="none" fill-rule="evenodd"/><path d="M738.986 459.87 737.963 463.688" stroke="#FFFFFF" stroke-width="1.5" stroke-linecap="round" stroke-linejoin="round" stroke-miterlimit="10" fill="none" fill-rule="evenodd"/><path d="M740.896 460.381 739.872 464.2" stroke="#FFFFFF" stroke-width="1.5" stroke-linecap="round" stroke-linejoin="round" stroke-miterlimit="10" fill="none" fill-rule="evenodd"/><path d="M742.805 460.893 741.782 464.712" stroke="#FFFFFF" stroke-width="1.5" stroke-linecap="round" stroke-linejoin="round" stroke-miterlimit="10" fill="none" fill-rule="evenodd"/><path d="M722.568 467.388 725.967 469.407" stroke="#FFFFFF" stroke-width="1.5" stroke-linecap="round" stroke-linejoin="round" stroke-miterlimit="10" fill="none" fill-rule="evenodd"/><path d="M723.577 465.689 726.976 467.708" stroke="#FFFFFF" stroke-width="1.5" stroke-linecap="round" stroke-linejoin="round" stroke-miterlimit="10" fill="none" fill-rule="evenodd"/><path d="M724.586 463.989 727.985 466.008" stroke="#FFFFFF" stroke-width="1.5" stroke-linecap="round" stroke-linejoin="round" stroke-miterlimit="10" fill="none" fill-rule="evenodd"/></g></svg>