<svg width="458" height="463" xmlns="http://www.w3.org/2000/svg" xmlns:xlink="http://www.w3.org/1999/xlink" xml:space="preserve" overflow="hidden"><defs><clipPath id="clip0"><rect x="1203" y="149" width="458" height="463"/></clipPath><linearGradient x1="1560.03" y1="396.526" x2="1612.57" y2="457.858" gradientUnits="userSpaceOnUse" spreadMethod="reflect" id="fill1"><stop offset="0" stop-color="#FF4552"/><stop offset="0.00392157" stop-color="#FF4552" stop-opacity="0.996078"/><stop offset="0.00784314" stop-color="#FF4552" stop-opacity="0.992157"/><stop offset="0.0117647" stop-color="#FF4552" stop-opacity="0.988235"/><stop offset="0.0156863" stop-color="#FF4552" stop-opacity="0.984314"/><stop offset="0.0196078" stop-color="#FF4552" stop-opacity="0.980392"/><stop offset="0.0235294" stop-color="#FF4552" stop-opacity="0.976471"/><stop offset="0.027451" stop-color="#FF4552" stop-opacity="0.972549"/><stop offset="0.0313726" stop-color="#FF4552" stop-opacity="0.968627"/><stop offset="0.0352941" stop-color="#FF4552" stop-opacity="0.964706"/><stop offset="0.0392157" stop-color="#FF4552" stop-opacity="0.960784"/><stop offset="0.0431373" stop-color="#FF4552" stop-opacity="0.956863"/><stop offset="0.0470588" stop-color="#FF4552" stop-opacity="0.952941"/><stop offset="0.0509804" stop-color="#FF4552" stop-opacity="0.94902"/><stop offset="0.054902" stop-color="#FF4552" stop-opacity="0.945098"/><stop offset="0.0588235" stop-color="#FF4552" stop-opacity="0.941176"/><stop offset="0.0627451" stop-color="#FF4551" stop-opacity="0.937255"/><stop offset="0.0666667" stop-color="#FF4552" stop-opacity="0.933333"/><stop offset="0.0705882" stop-color="#FF4451" stop-opacity="0.929412"/><stop offset="0.0745098" stop-color="#FF4452" stop-opacity="0.92549"/><stop offset="0.0784314" stop-color="#FF4552" stop-opacity="0.921569"/><stop offset="0.0823529" stop-color="#FF4552" stop-opacity="0.917647"/><stop offset="0.0862745" stop-color="#FF4552" stop-opacity="0.913725"/><stop offset="0.0901961" stop-color="#FF4552" stop-opacity="0.909804"/><stop offset="0.0941176" stop-color="#FF4552" stop-opacity="0.905882"/><stop offset="0.0980392" stop-color="#FF4552" stop-opacity="0.901961"/><stop offset="0.101961" stop-color="#FF4552" stop-opacity="0.898039"/><stop offset="0.105882" stop-color="#FF4552" stop-opacity="0.894118"/><stop offset="0.109804" stop-color="#FF4552" stop-opacity="0.890196"/><stop offset="0.113725" stop-color="#FF4552" stop-opacity="0.886275"/><stop offset="0.117647" stop-color="#FF4552" stop-opacity="0.882353"/><stop offset="0.121569" stop-color="#FF4552" stop-opacity="0.878431"/><stop offset="0.12549" stop-color="#FF4552" stop-opacity="0.87451"/><stop offset="0.129412" stop-color="#FF4552" stop-opacity="0.870588"/><stop offset="0.133333" stop-color="#FF4552" stop-opacity="0.866667"/><stop offset="0.137255" stop-color="#FF4552" stop-opacity="0.862745"/><stop offset="0.141176" stop-color="#FF4552" stop-opacity="0.858824"/><stop offset="0.145098" stop-color="#FF4552" stop-opacity="0.854902"/><stop offset="0.14902" stop-color="#FF4552" stop-opacity="0.85098"/><stop offset="0.152941" stop-color="#FF4552" stop-opacity="0.847059"/><stop offset="0.156863" stop-color="#FF4552" stop-opacity="0.843137"/><stop offset="0.160784" stop-color="#FF4552" stop-opacity="0.839216"/><stop offset="0.164706" stop-color="#FF4552" stop-opacity="0.835294"/><stop offset="0.168627" stop-color="#FF4552" stop-opacity="0.831373"/><stop offset="0.172549" stop-color="#FF4552" stop-opacity="0.827451"/><stop offset="0.176471" stop-color="#FF4551" stop-opacity="0.823529"/><stop offset="0.180392" stop-color="#FF4552" stop-opacity="0.819608"/><stop offset="0.184314" stop-color="#FF4552" stop-opacity="0.815686"/><stop offset="0.188235" stop-color="#FF4552" stop-opacity="0.811765"/><stop offset="0.192157" stop-color="#FF4552" stop-opacity="0.807843"/><stop offset="0.196078" stop-color="#FF4552" stop-opacity="0.803922"/><stop offset="0.2" stop-color="#FF4552" stop-opacity="0.8"/><stop offset="0.203922" stop-color="#FF4552" stop-opacity="0.796078"/><stop offset="0.207843" stop-color="#FF4552" stop-opacity="0.792157"/><stop offset="0.211765" stop-color="#FF4552" stop-opacity="0.788235"/><stop offset="0.215686" stop-color="#FF4552" stop-opacity="0.784314"/><stop offset="0.219608" stop-color="#FF4552" stop-opacity="0.780392"/><stop offset="0.223529" stop-color="#FF4552" stop-opacity="0.776471"/><stop offset="0.227451" stop-color="#FF4552" stop-opacity="0.772549"/><stop offset="0.231373" stop-color="#FF4552" stop-opacity="0.768627"/><stop offset="0.235294" stop-color="#FF4552" stop-opacity="0.764706"/><stop offset="0.239216" stop-color="#FF4552" stop-opacity="0.760784"/><stop offset="0.243137" stop-color="#FF4552" stop-opacity="0.756863"/><stop offset="0.247059" stop-color="#FF4552" stop-opacity="0.752941"/><stop offset="0.25098" stop-color="#FF4552" stop-opacity="0.74902"/><stop offset="0.254902" stop-color="#FF4552" stop-opacity="0.745098"/><stop offset="0.258824" stop-color="#FF4552" stop-opacity="0.741176"/><stop offset="0.262745" stop-color="#FF4552" stop-opacity="0.737255"/><stop offset="0.266667" stop-color="#FF4551" stop-opacity="0.733333"/><stop offset="0.270588" stop-color="#FF4552" stop-opacity="0.729412"/><stop offset="0.27451" stop-color="#FF4552" stop-opacity="0.72549"/><stop offset="0.278431" stop-color="#FF4552" stop-opacity="0.721569"/><stop offset="0.282353" stop-color="#FF4552" stop-opacity="0.717647"/><stop offset="0.286275" stop-color="#FF4552" stop-opacity="0.713725"/><stop offset="0.290196" stop-color="#FF4552" stop-opacity="0.709804"/><stop offset="0.294118" stop-color="#FF4552" stop-opacity="0.705882"/><stop offset="0.298039" stop-color="#FF4552" stop-opacity="0.701961"/><stop offset="0.301961" stop-color="#FF4551" stop-opacity="0.698039"/><stop offset="0.305882" stop-color="#FF4552" stop-opacity="0.694118"/><stop offset="0.309804" stop-color="#FF4552" stop-opacity="0.690196"/><stop offset="0.313726" stop-color="#FF4552" stop-opacity="0.686275"/><stop offset="0.317647" stop-color="#FF4552" stop-opacity="0.682353"/><stop offset="0.321569" stop-color="#FF4552" stop-opacity="0.678431"/><stop offset="0.32549" stop-color="#FF4552" stop-opacity="0.67451"/><stop offset="0.329412" stop-color="#FF4552" stop-opacity="0.670588"/><stop offset="0.333333" stop-color="#FF4552" stop-opacity="0.666667"/><stop offset="0.337255" stop-color="#FF4552" stop-opacity="0.662745"/><stop offset="0.341176" stop-color="#FF4552" stop-opacity="0.658823"/><stop offset="0.345098" stop-color="#FF4552" stop-opacity="0.654902"/><stop offset="0.34902" stop-color="#FF4552" stop-opacity="0.65098"/><stop offset="0.352941" stop-color="#FF4552" stop-opacity="0.647059"/><stop offset="0.356863" stop-color="#FF4552" stop-opacity="0.643137"/><stop offset="0.360784" stop-color="#FF4552" stop-opacity="0.639216"/><stop offset="0.364706" stop-color="#FF4552" stop-opacity="0.635294"/><stop offset="0.368627" stop-color="#FF4552" stop-opacity="0.631373"/><stop offset="0.372549" stop-color="#FF4552" stop-opacity="0.627451"/><stop offset="0.376471" stop-color="#FF4552" stop-opacity="0.623529"/><stop offset="0.380392" stop-color="#FF4552" stop-opacity="0.619608"/><stop offset="0.384314" stop-color="#FF4552" stop-opacity="0.615686"/><stop offset="0.388235" stop-color="#FF4552" stop-opacity="0.611765"/><stop offset="0.392157" stop-color="#FF4552" stop-opacity="0.607843"/><stop offset="0.396078" stop-color="#FF4552" stop-opacity="0.603922"/><stop offset="0.4" stop-color="#FF4552" stop-opacity="0.6"/><stop offset="0.403922" stop-color="#FF4552" stop-opacity="0.596078"/><stop offset="0.407843" stop-color="#FF4552" stop-opacity="0.592157"/><stop offset="0.411765" stop-color="#FF4552" stop-opacity="0.588235"/><stop offset="0.415686" stop-color="#FF4552" stop-opacity="0.584314"/><stop offset="0.419608" stop-color="#FF4551" stop-opacity="0.580392"/><stop offset="0.423529" stop-color="#FF4552" stop-opacity="0.576471"/><stop offset="0.427451" stop-color="#FF4552" stop-opacity="0.572549"/><stop offset="0.431373" stop-color="#FF4552" stop-opacity="0.568627"/><stop offset="0.435294" stop-color="#FF4451" stop-opacity="0.564706"/><stop offset="0.439216" stop-color="#FF4552" stop-opacity="0.560784"/><stop offset="0.443137" stop-color="#FF4552" stop-opacity="0.556863"/><stop offset="0.447059" stop-color="#FF4551" stop-opacity="0.552941"/><stop offset="0.45098" stop-color="#FF4552" stop-opacity="0.54902"/><stop offset="0.454902" stop-color="#FF4552" stop-opacity="0.545098"/><stop offset="0.458824" stop-color="#FF4552" stop-opacity="0.541176"/><stop offset="0.462745" stop-color="#FF4552" stop-opacity="0.537255"/><stop offset="0.466667" stop-color="#FF4552" stop-opacity="0.533333"/><stop offset="0.470588" stop-color="#FF4552" stop-opacity="0.529412"/><stop offset="0.47451" stop-color="#FF4552" stop-opacity="0.52549"/><stop offset="0.478431" stop-color="#FF4552" stop-opacity="0.521569"/><stop offset="0.482353" stop-color="#FF4552" stop-opacity="0.517647"/><stop offset="0.486275" stop-color="#FF4552" stop-opacity="0.513726"/><stop offset="0.490196" stop-color="#FF4552" stop-opacity="0.509804"/><stop offset="0.494118" stop-color="#FF4552" stop-opacity="0.505882"/><stop offset="0.498039" stop-color="#FF4552" stop-opacity="0.501961"/><stop offset="0.501961" stop-color="#FF4552" stop-opacity="0.498039"/><stop offset="0.505882" stop-color="#FF4552" stop-opacity="0.494118"/><stop offset="0.509804" stop-color="#FF4551" stop-opacity="0.490196"/><stop offset="0.513726" stop-color="#FF4552" stop-opacity="0.486274"/><stop offset="0.517647" stop-color="#FF4552" stop-opacity="0.482353"/><stop offset="0.521569" stop-color="#FF4552" stop-opacity="0.478431"/><stop offset="0.52549" stop-color="#FF4552" stop-opacity="0.47451"/><stop offset="0.529412" stop-color="#FF4552" stop-opacity="0.470588"/><stop offset="0.533333" stop-color="#FF4552" stop-opacity="0.466667"/><stop offset="0.537255" stop-color="#FF4552" stop-opacity="0.462745"/><stop offset="0.541176" stop-color="#FF4552" stop-opacity="0.458824"/><stop offset="0.545098" stop-color="#FF4552" stop-opacity="0.454902"/><stop offset="0.54902" stop-color="#FF4552" stop-opacity="0.45098"/><stop offset="0.552941" stop-color="#FF4451" stop-opacity="0.447059"/><stop offset="0.556863" stop-color="#FF4552" stop-opacity="0.443137"/><stop offset="0.560784" stop-color="#FF4552" stop-opacity="0.439216"/><stop offset="0.564706" stop-color="#FF4552" stop-opacity="0.435294"/><stop offset="0.568627" stop-color="#FF4552" stop-opacity="0.431373"/><stop offset="0.572549" stop-color="#FF4552" stop-opacity="0.427451"/><stop offset="0.576471" stop-color="#FF4552" stop-opacity="0.423529"/><stop offset="0.580392" stop-color="#FF4552" stop-opacity="0.419608"/><stop offset="0.584314" stop-color="#FF4451" stop-opacity="0.415686"/><stop offset="0.588235" stop-color="#FF4452" stop-opacity="0.411765"/><stop offset="0.592157" stop-color="#FF4552" stop-opacity="0.407843"/><stop offset="0.596078" stop-color="#FF4552" stop-opacity="0.403922"/><stop offset="0.6" stop-color="#FF4552" stop-opacity="0.4"/><stop offset="0.603922" stop-color="#FF4552" stop-opacity="0.396078"/><stop offset="0.607843" stop-color="#FF4552" stop-opacity="0.392157"/><stop offset="0.611765" stop-color="#FF4552" stop-opacity="0.388235"/><stop offset="0.615686" stop-color="#FF4551" stop-opacity="0.384314"/><stop offset="0.619608" stop-color="#FF4552" stop-opacity="0.380392"/><stop offset="0.623529" stop-color="#FF4551" stop-opacity="0.376471"/><stop offset="0.627451" stop-color="#FF4552" stop-opacity="0.372549"/><stop offset="0.631373" stop-color="#FF4551" stop-opacity="0.368627"/><stop offset="0.635294" stop-color="#FF4552" stop-opacity="0.364706"/><stop offset="0.639216" stop-color="#FF4552" stop-opacity="0.360784"/><stop offset="0.643137" stop-color="#FF4552" stop-opacity="0.356863"/><stop offset="0.647059" stop-color="#FF4552" stop-opacity="0.352941"/><stop offset="0.65098" stop-color="#FF4552" stop-opacity="0.34902"/><stop offset="0.654902" stop-color="#FF4551" stop-opacity="0.345098"/><stop offset="0.658824" stop-color="#FF4552" stop-opacity="0.341176"/><stop offset="0.662745" stop-color="#FF4552" stop-opacity="0.337255"/><stop offset="0.666667" stop-color="#FF4552" stop-opacity="0.333333"/><stop offset="0.670588" stop-color="#FF4552" stop-opacity="0.329412"/><stop offset="0.67451" stop-color="#FF4552" stop-opacity="0.32549"/><stop offset="0.678431" stop-color="#FF4552" stop-opacity="0.321569"/><stop offset="0.682353" stop-color="#FF4551" stop-opacity="0.317647"/><stop offset="0.686275" stop-color="#FF4552" stop-opacity="0.313725"/><stop offset="0.690196" stop-color="#FF4552" stop-opacity="0.309804"/><stop offset="0.694118" stop-color="#FF4552" stop-opacity="0.305882"/><stop offset="0.698039" stop-color="#FF4552" stop-opacity="0.301961"/><stop offset="0.701961" stop-color="#FF4552" stop-opacity="0.298039"/><stop offset="0.705882" stop-color="#FF4552" stop-opacity="0.294118"/><stop offset="0.709804" stop-color="#FF4552" stop-opacity="0.290196"/><stop offset="0.713726" stop-color="#FF4552" stop-opacity="0.286274"/><stop offset="0.717647" stop-color="#FF4552" stop-opacity="0.282353"/><stop offset="0.721569" stop-color="#FF4552" stop-opacity="0.278431"/><stop offset="0.72549" stop-color="#FF4552" stop-opacity="0.27451"/><stop offset="0.729412" stop-color="#FF4552" stop-opacity="0.270588"/><stop offset="0.733333" stop-color="#FF4552" stop-opacity="0.266667"/><stop offset="0.737255" stop-color="#FF4552" stop-opacity="0.262745"/><stop offset="0.741176" stop-color="#FF4552" stop-opacity="0.258824"/><stop offset="0.745098" stop-color="#FF4552" stop-opacity="0.254902"/><stop offset="0.74902" stop-color="#FF4552" stop-opacity="0.25098"/><stop offset="0.752941" stop-color="#FF4552" stop-opacity="0.247059"/><stop offset="0.756863" stop-color="#FF4552" stop-opacity="0.243137"/><stop offset="0.760784" stop-color="#FF4552" stop-opacity="0.239216"/><stop offset="0.764706" stop-color="#FF4552" stop-opacity="0.235294"/><stop offset="0.768627" stop-color="#FF4552" stop-opacity="0.231373"/><stop offset="0.772549" stop-color="#FF4552" stop-opacity="0.227451"/><stop offset="0.776471" stop-color="#FF4552" stop-opacity="0.223529"/><stop offset="0.780392" stop-color="#FF4552" stop-opacity="0.219608"/><stop offset="0.784314" stop-color="#FF4552" stop-opacity="0.215686"/><stop offset="0.788235" stop-color="#FF4552" stop-opacity="0.211765"/><stop offset="0.792157" stop-color="#FF4552" stop-opacity="0.207843"/><stop offset="0.796078" stop-color="#FF4552" stop-opacity="0.203922"/><stop offset="0.8" stop-color="#FF4552" stop-opacity="0.2"/><stop offset="0.803922" stop-color="#FF4552" stop-opacity="0.196078"/><stop offset="0.807843" stop-color="#FF4552" stop-opacity="0.192157"/><stop offset="0.811765" stop-color="#FF4552" stop-opacity="0.188235"/><stop offset="0.815686" stop-color="#FF4552" stop-opacity="0.184314"/><stop offset="0.819608" stop-color="#FF4552" stop-opacity="0.180392"/><stop offset="0.823529" stop-color="#FF4552" stop-opacity="0.176471"/><stop offset="0.827451" stop-color="#FF4552" stop-opacity="0.172549"/><stop offset="0.831373" stop-color="#FF4552" stop-opacity="0.168627"/><stop offset="0.835294" stop-color="#FF4552" stop-opacity="0.164706"/><stop offset="0.839216" stop-color="#FF4552" stop-opacity="0.160784"/><stop offset="0.843137" stop-color="#FF4552" stop-opacity="0.156863"/><stop offset="0.847059" stop-color="#FF4552" stop-opacity="0.152941"/><stop offset="0.85098" stop-color="#FF4552" stop-opacity="0.14902"/><stop offset="0.854902" stop-color="#FF4552" stop-opacity="0.145098"/><stop offset="0.858824" stop-color="#FF4552" stop-opacity="0.141176"/><stop offset="0.862745" stop-color="#FF4552" stop-opacity="0.137255"/><stop offset="0.866667" stop-color="#FF4552" stop-opacity="0.133333"/><stop offset="0.870588" stop-color="#FF4552" stop-opacity="0.129412"/><stop offset="0.87451" stop-color="#FF4552" stop-opacity="0.12549"/><stop offset="0.878431" stop-color="#FF4552" stop-opacity="0.121569"/><stop offset="0.882353" stop-color="#FF4552" stop-opacity="0.117647"/><stop offset="0.886275" stop-color="#FF4552" stop-opacity="0.113725"/><stop offset="0.890196" stop-color="#FF4552" stop-opacity="0.109804"/><stop offset="0.894118" stop-color="#FF4552" stop-opacity="0.105882"/><stop offset="0.898039" stop-color="#FF4552" stop-opacity="0.101961"/><stop offset="0.901961" stop-color="#FF4552" stop-opacity="0.0980392"/><stop offset="0.905882" stop-color="#FF4552" stop-opacity="0.0941176"/><stop offset="0.909804" stop-color="#FF4552" stop-opacity="0.0901961"/><stop offset="0.913725" stop-color="#FF4552" stop-opacity="0.0862745"/><stop offset="0.917647" stop-color="#FF4552" stop-opacity="0.0823529"/><stop offset="0.921569" stop-color="#FF4552" stop-opacity="0.0784314"/><stop offset="0.92549" stop-color="#FF4552" stop-opacity="0.0745098"/><stop offset="0.929412" stop-color="#FF4552" stop-opacity="0.0705882"/><stop offset="0.933333" stop-color="#FF4552" stop-opacity="0.0666667"/><stop offset="0.937255" stop-color="#FF4552" stop-opacity="0.0627451"/><stop offset="0.941176" stop-color="#FF4552" stop-opacity="0.0588235"/><stop offset="0.945098" stop-color="#FF4552" stop-opacity="0.054902"/><stop offset="0.94902" stop-color="#FF4552" stop-opacity="0.0509804"/><stop offset="0.952941" stop-color="#FF4552" stop-opacity="0.0470588"/><stop offset="0.956863" stop-color="#FF4552" stop-opacity="0.0431373"/><stop offset="0.960784" stop-color="#FF4552" stop-opacity="0.0392157"/><stop offset="0.964706" stop-color="#FF4552" stop-opacity="0.0352941"/><stop offset="0.968627" stop-color="#FF4552" stop-opacity="0.0313725"/><stop offset="0.972549" stop-color="#FF4552" stop-opacity="0.027451"/><stop offset="0.976471" stop-color="#FF4552" stop-opacity="0.0235294"/><stop offset="0.980392" stop-color="#FF4552" stop-opacity="0.0196078"/><stop offset="0.984314" stop-color="#FF4552" stop-opacity="0.0156863"/><stop offset="0.988235" stop-color="#FF4552" stop-opacity="0.0117647"/><stop offset="0.992157" stop-color="#FF4552" stop-opacity="0.00784314"/><stop offset="0.996078" stop-color="#FF4552" stop-opacity="0.00392157"/><stop offset="1" stop-color="#FF4552" stop-opacity="0"/></linearGradient><linearGradient x1="1502.4" y1="598.835" x2="1462.84" y2="493.847" gradientUnits="userSpaceOnUse" spreadMethod="reflect" id="fill2"><stop offset="0" stop-color="#FF4552" stop-opacity="0"/><stop offset="0.25" stop-color="#FF4552"/><stop offset="1" stop-color="#FF4552"/></linearGradient><linearGradient x1="1358.56" y1="518.231" x2="1326.87" y2="600.995" gradientUnits="userSpaceOnUse" spreadMethod="reflect" id="fill3"><stop offset="0" stop-color="#FF4552" stop-opacity="0"/><stop offset="0.07" stop-color="#FF4552" stop-opacity="0"/><stop offset="0.4" stop-color="#FF4552"/><stop offset="1" stop-color="#FF4552"/></linearGradient><linearGradient x1="1358.56" y1="518.231" x2="1326.87" y2="600.995" gradientUnits="userSpaceOnUse" spreadMethod="reflect" id="fill4"><stop offset="0" stop-color="#FF4552" stop-opacity="0"/><stop offset="0.07" stop-color="#FF4552" stop-opacity="0"/><stop offset="0.4" stop-color="#FF4552"/><stop offset="1" stop-color="#FF4552"/></linearGradient><linearGradient x1="1358.56" y1="518.231" x2="1326.87" y2="600.995" gradientUnits="userSpaceOnUse" spreadMethod="reflect" id="fill5"><stop offset="0" stop-color="#FF4552" stop-opacity="0"/><stop offset="0.07" stop-color="#FF4552" stop-opacity="0"/><stop offset="0.4" stop-color="#FF4552"/><stop offset="1" stop-color="#FF4552"/></linearGradient><linearGradient x1="1203" y1="383.5" x2="1342" y2="383.5" gradientUnits="userSpaceOnUse" spreadMethod="reflect" id="fill6"><stop offset="0" stop-color="#FF4552" stop-opacity="0"/><stop offset="0.04" stop-color="#FF4552" stop-opacity="0"/><stop offset="0.26" stop-color="#FF4552"/><stop offset="1" stop-color="#FF4552"/></linearGradient><linearGradient x1="1203" y1="383.5" x2="1342" y2="383.5" gradientUnits="userSpaceOnUse" spreadMethod="reflect" id="fill7"><stop offset="0" stop-color="#FF4552" stop-opacity="0"/><stop offset="0.04" stop-color="#FF4552" stop-opacity="0"/><stop offset="0.26" stop-color="#FF4552"/><stop offset="1" stop-color="#FF4552"/></linearGradient><linearGradient x1="1203" y1="383.5" x2="1342" y2="383.5" gradientUnits="userSpaceOnUse" spreadMethod="reflect" id="fill8"><stop offset="0" stop-color="#FF4552" stop-opacity="0"/><stop offset="0.04" stop-color="#FF4552" stop-opacity="0"/><stop offset="0.26" stop-color="#FF4552"/><stop offset="1" stop-color="#FF4552"/></linearGradient></defs><g clip-path="url(#clip0)" transform="translate(-1203 -149)"><rect x="1253" y="194" width="366" height="366" stroke="#FFFFFF" stroke-width="4" stroke-miterlimit="8" fill="none"/><path d="M1562.76 392.393 1642.15 398.384 1641.65 405.077 1562.25 399.086Z" fill="#FF4552" fill-rule="evenodd"/><path d="M1562.69 394.247 1615.23 455.579 1609.91 460.137 1557.37 398.805Z" fill="url(#fill1)" fill-rule="evenodd"/><path d="M1526.71 264.34 1566.1 175.841 1572.51 178.696 1533.13 267.195Z" fill="#FF4552" fill-rule="evenodd"/><path d="M1454.08 245.694 1507.3 173.751 1513.41 178.269 1460.19 250.213Z" fill="#FF4552" fill-rule="evenodd"/><path d="M1458.87 492.89 1451 578.806 1444.03 578.167 1451.89 492.252Z" fill="#FF4552" fill-rule="evenodd"/><path d="M1499.13 600.065 1459.57 495.077 1466.1 492.618 1505.66 597.605Z" fill="url(#fill2)" fill-rule="evenodd"/><path d="M1360.32 593.937 1346.6 608.478 1346.1 588.492 1349.95 589.968 1350.43 589.298C1352.48 586.499 1354.52 583.7 1354.02 579.923 1353 572.37 1362.21 568.728 1361.19 561.174 1360.18 553.62 1369.39 549.979 1368.37 542.425 1367.61 536.76 1372.6 533.295 1374.71 528.73L1375.28 526.978 1376.05 526.346C1376.99 525.827 1378.05 525.694 1379.03 526.069 1380.01 526.445 1380.72 527.257 1381.07 528.267L1381.31 529.886 1381.31 529.911C1379.6 535.08 1373.68 538.635 1374.5 544.772 1375.52 552.326 1366.31 555.968 1367.33 563.521 1368.34 571.075 1359.13 574.717 1360.15 582.27 1360.65 586.047 1358.61 588.846 1356.56 591.645L1356.08 592.315Z" fill="url(#fill3)" fill-rule="evenodd"/><path d="M1340.63 586.398 1326.91 600.938 1326.4 580.952 1330.26 582.429 1330.73 581.758C1332.78 578.959 1334.83 576.16 1334.32 572.384 1333.31 564.83 1342.51 561.188 1341.5 553.634 1340.49 546.081 1349.69 542.439 1348.68 534.885 1347.92 529.22 1352.91 525.755 1355.02 521.19L1355.59 519.438 1356.36 518.806C1357.29 518.288 1358.36 518.155 1359.34 518.53 1360.32 518.905 1361.03 519.717 1361.38 520.728L1361.62 522.346 1361.61 522.371C1359.91 527.54 1353.99 531.095 1354.81 537.232 1355.82 544.786 1346.62 548.428 1347.63 555.982 1348.65 563.535 1339.44 567.177 1340.45 574.731 1340.96 578.508 1338.91 581.306 1336.86 584.105L1336.39 584.776Z" fill="url(#fill4)" fill-rule="evenodd"/><path d="M1320.89 578.912 1307.17 593.452 1306.67 573.466 1310.52 574.943 1311 574.272C1313.05 571.473 1315.09 568.674 1314.59 564.898 1313.57 557.344 1322.78 553.702 1321.76 546.148 1320.75 538.595 1329.96 534.953 1328.94 527.399 1328.18 521.734 1333.17 518.269 1335.28 513.704L1335.85 511.952 1336.62 511.32C1337.55 510.802 1338.62 510.668 1339.6 511.044 1340.58 511.419 1341.29 512.231 1341.64 513.242L1341.88 514.86 1341.88 514.885C1340.17 520.054 1334.25 523.609 1335.07 529.746 1336.09 537.3 1326.88 540.942 1327.9 548.495 1328.91 556.049 1319.7 559.691 1320.72 567.245 1321.22 571.021 1319.18 573.82 1317.13 576.619L1316.65 577.29Z" fill="url(#fill5)" fill-rule="evenodd"/><path d="M1431.57 438.191 1430.99 438.371 1431.54 438.427ZM1333.53 245.214 1333.45 245.374 1333.7 245.519ZM1305.26 213.5C1312.3 213.5 1318.01 219.206 1318.01 226.246L1317.94 227.422 1319.69 226.877C1320.52 226.707 1321.38 226.618 1322.26 226.618 1326.67 226.618 1330.55 228.847 1332.84 232.238L1333.37 233.215 1334.07 231.94C1336.36 228.549 1340.24 226.32 1344.64 226.32 1346.4 226.32 1348.08 226.677 1349.61 227.322L1349.86 227.457 1350.04 227.304C1352.08 225.93 1354.53 225.128 1357.17 225.128 1361.14 225.128 1364.68 226.933 1367.02 229.766L1367.63 230.621 1367.85 230.351C1370.16 228.045 1373.35 226.618 1376.87 226.618 1382.15 226.618 1386.68 229.828 1388.62 234.403L1388.88 235.237 1388.92 235.225C1389.75 235.055 1390.61 234.966 1391.49 234.966 1397.65 234.966 1402.8 239.335 1403.99 245.143L1404.08 246.094 1405.7 246.256C1411.51 247.445 1415.88 252.584 1415.88 258.743 1415.88 263.142 1413.65 267.021 1410.26 269.312L1409.1 269.938 1409.99 269.849C1412.63 269.849 1415.08 270.651 1417.12 272.025L1417.88 272.656 1418.45 271.938C1419.68 270.58 1421.21 269.489 1422.93 268.764L1424.93 268.143 1424.77 267.956C1423.4 265.922 1422.59 263.47 1422.59 260.83 1422.59 253.791 1428.31 248.084 1435.35 248.084 1437.11 248.084 1438.79 248.441 1440.32 249.086L1440.46 249.167 1440.61 248.713C1442.54 244.139 1447.07 240.929 1452.36 240.929 1459.4 240.929 1465.11 246.635 1465.11 253.675 1465.11 260.714 1459.4 266.42 1452.36 266.42 1450.6 266.42 1448.92 266.064 1447.39 265.419L1447.25 265.338 1447.1 265.791C1445.65 269.222 1442.74 271.885 1439.14 273.003L1438.31 273.194 1438.47 273.381C1439.5 274.907 1440.21 276.668 1440.5 278.566L1440.56 279.409 1441.81 279.795 1443.64 280.788 1445.23 279.479C1447.26 278.105 1449.72 277.303 1452.36 277.303 1459.4 277.303 1465.11 283.009 1465.11 290.048 1465.11 292.688 1464.31 295.14 1462.94 297.174L1462.15 298.13 1462.64 298.723C1464.01 300.758 1464.82 303.21 1464.82 305.85 1464.82 312.009 1460.44 317.148 1454.63 318.336L1454.03 318.396 1454.56 319.373C1455.21 320.898 1455.57 322.575 1455.57 324.334 1455.57 331.374 1449.86 337.08 1442.81 337.08L1441.73 336.971 1442.65 338.078C1444.02 340.112 1444.82 342.565 1444.82 345.204 1444.82 346.964 1444.47 348.641 1443.82 350.166L1443.3 351.119 1443.58 351.143C1446.78 351.715 1449.57 353.484 1451.47 355.971L1451.63 356.214 1453.37 355.675C1454.2 355.505 1455.06 355.416 1455.94 355.416 1458.58 355.416 1461.04 356.218 1463.07 357.592L1463.21 357.705 1463.43 355.456C1463.94 352.967 1465.18 350.742 1466.91 349.012L1467.99 348.121 1466.71 347.425C1463.32 345.135 1461.09 341.256 1461.09 336.856 1461.09 329.817 1466.8 324.111 1473.84 324.111L1475.76 324.304 1475.71 323.738C1475.71 321.979 1476.06 320.302 1476.71 318.777L1477.47 317.372 1477.29 317.15C1475.91 315.116 1475.11 312.664 1475.11 310.024 1475.11 307.384 1475.91 304.932 1477.29 302.898L1477.35 302.818 1477.36 302.735 1476.16 301.744C1473.85 299.438 1472.42 296.251 1472.42 292.732 1472.42 287.452 1475.64 282.922 1480.22 280.988L1481.81 280.494 1481.67 279.017C1481.67 271.978 1487.39 266.271 1494.43 266.271L1496.62 266.492 1496.59 266.197C1496.59 259.158 1502.3 253.451 1509.35 253.451 1513.75 253.451 1517.63 255.68 1519.93 259.071L1520.57 260.263 1521.39 259.819C1522.92 259.175 1524.6 258.818 1526.36 258.818 1533.4 258.818 1539.11 264.524 1539.11 271.564 1539.11 278.603 1533.4 284.309 1526.36 284.309 1521.95 284.309 1518.07 282.08 1515.78 278.69L1515.13 277.497 1514.31 277.941C1512.79 278.586 1511.11 278.943 1509.35 278.943L1507.16 278.722 1507.19 279.017C1507.19 280.777 1506.83 282.453 1506.18 283.978L1506.04 284.247 1507.74 284.419C1513.56 285.607 1517.93 290.746 1517.93 296.905 1517.93 300.425 1516.5 303.612 1514.19 305.918L1512.95 306.941 1514.31 307.078C1516.8 307.587 1519.03 308.822 1520.76 310.552L1521.33 311.243 1521.77 309.833C1523.7 305.258 1528.24 302.049 1533.52 302.049 1539.68 302.049 1544.83 306.418 1546.02 312.225L1546.05 312.596 1546.08 312.573C1548.12 311.199 1550.57 310.396 1553.21 310.396 1560.26 310.396 1565.97 316.103 1565.97 323.142 1565.97 326.662 1564.54 329.848 1562.23 332.155L1561.47 332.785 1562.28 334.281C1562.93 335.805 1563.28 337.482 1563.28 339.242 1563.28 344.521 1560.07 349.051 1555.49 350.986L1553.33 351.655 1553.77 353.071C1553.94 353.901 1554.03 354.76 1554.03 355.64 1554.03 357.399 1553.68 359.076 1553.03 360.601L1552.16 362.205 1553.88 363.621C1556.19 365.928 1557.61 369.114 1557.61 372.634 1557.61 376.153 1556.19 379.34 1553.88 381.646L1553.63 381.851 1555.6 381.652C1562.64 381.652 1568.35 387.359 1568.35 394.398 1568.35 401.437 1562.64 407.143 1555.6 407.143 1549.43 407.143 1544.29 402.775 1543.1 396.967L1542.91 395.015 1541.16 395.556C1540.33 395.725 1539.47 395.814 1538.59 395.814 1533.31 395.814 1528.77 392.605 1526.84 388.03L1526.33 386.392 1525.13 387.377C1523.1 388.751 1520.64 389.553 1518 389.553 1514.7 389.553 1511.69 388.3 1509.43 386.242L1507.57 384.096 1507.44 384.136 1507.64 385.003C1507.73 385.636 1507.78 386.285 1507.78 386.945 1507.78 388.704 1507.43 390.381 1506.78 391.906L1505.69 393.919 1506.86 394.282C1508.57 395.007 1510.1 396.098 1511.33 397.456L1512.09 398.423 1514.23 397.263C1515.76 396.618 1517.44 396.262 1519.2 396.262 1526.24 396.262 1531.95 401.968 1531.95 409.007 1531.95 414.286 1528.74 418.816 1524.16 420.751L1523.69 420.899 1524.53 425.094 1524.3 426.222 1524.38 426.183C1525.9 425.538 1527.58 425.181 1529.34 425.181 1536.39 425.181 1542.1 430.888 1542.1 437.927 1542.1 442.326 1539.87 446.205 1536.47 448.496L1535.01 449.291 1535.74 450.18C1537.12 452.214 1537.92 454.667 1537.92 457.306L1537.87 457.786 1539.3 457.342C1540.13 457.172 1540.99 457.083 1541.87 457.083 1548.92 457.083 1554.63 462.789 1554.63 469.828L1554.56 470.499 1556.61 469.864C1557.44 469.694 1558.3 469.605 1559.18 469.605 1566.22 469.605 1571.94 475.311 1571.94 482.35 1571.94 484.99 1571.13 487.442 1569.76 489.476L1569.42 489.884 1570.71 490.284C1575.29 492.219 1578.5 496.748 1578.5 502.028 1578.5 509.067 1572.79 514.773 1565.74 514.773 1558.7 514.773 1552.99 509.067 1552.99 502.028 1552.99 499.388 1553.79 496.936 1555.17 494.902L1555.5 494.494 1554.21 494.094C1549.64 492.159 1546.42 487.63 1546.42 482.35L1546.49 481.68 1544.44 482.315C1543.61 482.485 1542.75 482.574 1541.87 482.574 1537.47 482.574 1533.59 480.345 1531.3 476.954L1531.02 476.453 1529.83 477.1C1528.3 477.745 1526.63 478.102 1524.87 478.102 1521.34 478.102 1518.15 476.675 1515.85 474.369L1514.67 472.947 1513.53 473.033C1506.48 473.033 1500.77 467.327 1500.77 460.288 1500.77 457.648 1501.57 455.196 1502.95 453.162L1503.25 452.796 1502.49 451.997C1501.71 451.053 1501.06 449.995 1500.58 448.851L1499.94 446.783 1498.47 447.627C1496.8 448.432 1494.92 448.884 1492.94 448.884 1485.89 448.884 1480.18 443.177 1480.18 436.138 1480.18 434.378 1480.54 432.702 1481.19 431.177L1481.83 429.985 1481.33 429.713C1477.94 427.422 1475.71 423.544 1475.71 419.144 1475.71 412.105 1481.42 406.398 1488.46 406.398L1489.18 406.471 1489.13 406.026C1489.13 404.266 1489.49 402.589 1490.14 401.065L1491.23 399.051 1490.06 398.688C1485.48 396.754 1482.27 392.224 1482.27 386.945 1482.27 386.065 1482.36 385.206 1482.53 384.376L1482.78 383.574 1481.14 382.93C1480.58 382.661 1480.05 382.354 1479.54 382.01L1478.67 381.296 1478.43 382.067C1476.5 386.642 1471.96 389.852 1466.68 389.852 1465.8 389.852 1464.94 389.762 1464.11 389.593L1462.71 389.159 1462.73 389.329C1462.73 396.369 1457.02 402.075 1449.97 402.075L1449.22 401.999 1449.49 402.86C1449.66 403.69 1449.75 404.549 1449.75 405.429 1449.75 410.709 1446.54 415.238 1441.96 417.173L1441.58 417.291 1441.43 418.731C1441.26 419.561 1441.01 420.361 1440.69 421.123L1440.14 422.141 1440.54 423.432C1440.71 424.262 1440.8 425.121 1440.8 426.001L1440.63 427.66 1441.9 427.318C1442.63 427.187 1443.38 427.119 1444.15 427.119 1451.2 427.119 1456.91 432.825 1456.91 439.865 1456.91 445.144 1453.7 449.674 1449.12 451.608L1448.81 451.705 1449.64 453.239C1450.29 454.764 1450.64 456.441 1450.64 458.2 1450.64 458.86 1450.59 459.508 1450.5 460.141L1450.22 461.353 1452.66 461.107C1458.82 461.107 1463.96 465.476 1465.15 471.284L1465.32 472.928 1466.5 473.57C1469.9 475.86 1472.13 479.739 1472.13 484.139 1472.13 491.178 1466.42 496.884 1459.37 496.884 1453.21 496.884 1448.06 492.515 1446.87 486.707L1446.71 485.063 1445.53 484.422C1444.85 483.964 1444.21 483.442 1443.64 482.865L1443.4 482.578 1441.96 483.361C1440.43 484.006 1438.75 484.362 1436.99 484.362 1431.71 484.362 1427.17 481.153 1425.24 476.578L1425.05 475.987 1423.45 476.501 1422.18 476.629 1420.92 478.398C1420.24 479.152 1419.46 479.824 1418.61 480.397L1417.24 481.143 1417.38 481.75C1417.47 482.383 1417.52 483.032 1417.52 483.691 1417.52 486.331 1416.72 488.783 1415.34 490.818L1413.97 492.476 1414.28 493.041C1414.93 494.566 1415.28 496.243 1415.28 498.002 1415.28 499.982 1414.83 501.856 1414.03 503.528L1413.17 505.025 1413.79 505.537C1414.94 506.69 1415.87 508.063 1416.52 509.588L1417.2 511.79 1418.03 512.79C1419.4 514.824 1420.21 517.276 1420.21 519.916 1420.21 522.555 1419.4 525.008 1418.03 527.042L1417.33 527.884 1417.52 529.755C1417.52 536.794 1411.81 542.5 1404.77 542.5 1397.72 542.5 1392.01 536.794 1392.01 529.755L1392.14 528.447 1391.45 528.377C1388.96 527.868 1386.74 526.633 1385.01 524.903L1384.24 523.978 1382.39 524.164C1375.34 524.164 1369.63 518.458 1369.63 511.419 1369.63 504.379 1375.34 498.673 1382.39 498.673 1385.03 498.673 1387.48 499.476 1389.52 500.85L1390.32 501.514 1390.03 500.571C1389.86 499.741 1389.77 498.882 1389.77 498.002 1389.77 495.363 1390.58 492.91 1391.95 490.876L1393.32 489.218 1393.01 488.653C1392.37 487.128 1392.01 485.451 1392.01 483.691 1392.01 481.932 1392.37 480.255 1393.01 478.73L1394.06 476.806 1392.92 476.634C1391.72 476.262 1390.6 475.717 1389.58 475.03L1388.21 473.899 1386.83 475.03C1384.8 476.404 1382.34 477.207 1379.7 477.207 1372.66 477.207 1366.95 471.501 1366.95 464.461 1366.95 462.702 1367.3 461.025 1367.95 459.5L1367.98 459.441 1367.75 459.249 1366.94 459.64C1365.74 460.012 1364.46 460.213 1363.14 460.213L1362.21 460.118 1362.14 460.347C1360.64 464.446 1357.09 467.56 1352.73 468.451L1351.42 468.584 1352.07 469.786C1352.71 471.311 1353.07 472.987 1353.07 474.747 1353.07 476.507 1352.71 478.184 1352.07 479.708L1351.62 480.528 1352.36 482.912C1352.53 483.741 1352.62 484.6 1352.62 485.48 1352.62 492.52 1346.91 498.226 1339.87 498.226L1338.31 498.069 1338.05 498.285C1336.01 499.66 1333.56 500.462 1330.92 500.462 1323.87 500.462 1318.16 494.756 1318.16 487.716 1318.16 482.437 1321.37 477.907 1325.95 475.972L1327.63 475.452 1327.56 474.747C1327.56 472.987 1327.92 471.311 1328.56 469.786L1329.37 468.29 1328.61 467.66C1326.3 465.354 1324.87 462.167 1324.87 458.648 1324.87 454.248 1327.11 450.369 1330.5 448.079L1331.72 447.417 1331.59 446.126C1331.59 439.086 1337.3 433.38 1344.34 433.38 1348.2 433.38 1351.65 435.087 1353.99 437.785L1354.34 438.271 1356.01 436.898C1358.05 435.524 1360.5 434.722 1363.14 434.722L1365.55 434.965 1365.71 434.456C1367.65 429.882 1372.18 426.672 1377.46 426.672 1384.51 426.672 1390.22 432.378 1390.22 439.417 1390.22 441.177 1389.86 442.854 1389.22 444.379L1388.29 446.083 1388.62 447.135C1388.79 447.964 1388.88 448.823 1388.88 449.703 1388.88 451.463 1388.52 453.139 1387.88 454.664L1387.84 454.724 1388.21 455.024 1389.58 453.892C1391.61 452.518 1394.07 451.716 1396.71 451.716 1401.11 451.716 1405 453.945 1407.29 457.335L1407.52 457.771 1408.91 457.341 1410.12 457.219 1410.3 456.888C1411.45 455.193 1412.99 453.788 1414.8 452.807L1417.59 451.71 1417.52 451.045C1417.52 445.765 1420.73 441.236 1425.31 439.301L1427.33 438.675 1425.47 438.488C1419.66 437.299 1415.28 432.16 1415.28 426.001 1415.28 424.241 1415.64 422.565 1416.29 421.04L1416.84 420.022 1416.44 418.731C1416.27 417.901 1416.18 417.042 1416.18 416.162 1416.18 410.883 1419.39 406.353 1423.97 404.418L1424.35 404.301 1424.5 402.86C1425.68 397.053 1430.83 392.684 1436.99 392.684L1437.74 392.759 1437.47 391.898C1437.3 391.068 1437.22 390.209 1437.22 389.329 1437.22 387.57 1437.57 385.893 1438.22 384.368L1438.84 383.216 1437.17 382.308C1434.2 380.304 1432.12 377.083 1431.65 373.362L1431.55 371.795 1430.74 370.815C1429.37 368.781 1428.56 366.329 1428.56 363.689 1428.56 361.929 1428.92 360.253 1429.56 358.728L1430.1 357.751 1429.5 357.691C1423.69 356.503 1419.31 351.364 1419.31 345.204 1419.31 344.325 1419.4 343.465 1419.57 342.636L1419.85 341.732 1418.46 341.591C1413.37 340.551 1409.39 336.487 1408.47 331.361L1408.41 330.647 1406.71 330.819C1404.94 330.819 1403.27 330.462 1401.74 329.817L1401.3 329.577 1400.28 331.46C1397.98 334.851 1394.1 337.08 1389.7 337.08 1385.3 337.08 1381.41 334.851 1379.12 331.46L1378.2 329.761 1377.6 330.864C1375.88 333.407 1373.27 335.296 1370.21 336.082L1369.17 336.282 1368.93 337.047C1366.99 341.622 1362.46 344.832 1357.17 344.832 1350.13 344.832 1344.42 339.125 1344.42 332.086 1344.42 325.927 1348.79 320.788 1354.6 319.599L1355.03 319.557 1355.27 318.777C1356.72 315.346 1359.63 312.683 1363.23 311.565L1364.97 311.165 1364.67 310.207C1364.5 309.377 1364.41 308.518 1364.41 307.638 1364.41 306.758 1364.5 305.899 1364.67 305.07L1364.76 304.773 1363.26 304.622C1360.35 304.027 1357.8 302.446 1355.98 300.242L1355.51 299.554 1354.68 300.003C1353.15 300.648 1351.48 301.005 1349.71 301.005 1342.67 301.005 1336.96 295.298 1336.96 288.259L1337.04 287.166 1336.77 286.661C1336.12 285.136 1335.77 283.46 1335.77 281.7 1335.77 279.94 1336.12 278.264 1336.77 276.739L1336.88 276.527 1334.61 276.298C1330.98 275.555 1327.91 273.269 1326.12 270.156L1325.56 268.954 1324.47 268.845C1320.11 267.953 1316.56 264.84 1315.06 260.74L1314.79 259.758 1314.77 259.771C1312.74 261.146 1310.28 261.948 1307.64 261.948 1300.6 261.948 1294.89 256.242 1294.89 249.203 1294.89 244.803 1297.12 240.924 1300.51 238.634L1301.19 238.267 1300.29 237.99C1295.71 236.055 1292.5 231.525 1292.5 226.246 1292.5 219.206 1298.21 213.5 1305.26 213.5Z" stroke="#FFFFFF" stroke-width="2.5" stroke-linecap="round" stroke-linejoin="round" stroke-miterlimit="10" fill="#FFFFFF" fill-rule="evenodd"/><path d="M1441.36 593.811C1440.37 591.469 1441.47 588.771 1443.81 587.784 1446.15 586.797 1448.85 587.894 1449.84 590.236 1450.83 592.577 1449.73 595.275 1447.39 596.262 1445.05 597.25 1442.35 596.152 1441.36 593.811Z" stroke="#FFFFFF" stroke-width="2.5" stroke-miterlimit="8" fill="#FFFFFF" fill-rule="evenodd"/><path d="M1442.91 582.313C1441.92 579.972 1443.02 577.274 1445.36 576.287 1447.7 575.3 1450.4 576.397 1451.39 578.739 1452.38 581.08 1451.28 583.778 1448.94 584.765 1446.6 585.752 1443.9 584.655 1442.91 582.313Z" stroke="#FFFFFF" stroke-width="2.5" stroke-miterlimit="8" fill="#FFFFFF" fill-rule="evenodd"/><path d="M0 0 6.03827 10.3513" stroke="#FFFFFF" stroke-width="2.5" stroke-miterlimit="8" fill="#FFFFFF" fill-rule="evenodd" transform="matrix(-0.921438 0.388524 0.388524 0.921438 1447.12 580.46)"/><path d="M1505.18 580.902C1507.15 582.513 1507.44 585.411 1505.83 587.376 1504.22 589.341 1501.32 589.628 1499.35 588.018 1497.39 586.407 1497.1 583.508 1498.71 581.543 1500.32 579.578 1503.22 579.291 1505.18 580.902Z" stroke="#FFFFFF" stroke-width="2.5" stroke-miterlimit="8" fill="#FFFFFF" fill-rule="evenodd"/><path d="M1508.13 593.076C1509.38 594.107 1509.57 595.962 1508.54 597.219 1507.51 598.477 1505.65 598.661 1504.39 597.63 1503.13 596.599 1502.95 594.744 1503.98 593.486 1505.01 592.229 1506.87 592.045 1508.13 593.076Z" stroke="#FFFFFF" stroke-width="2.5" stroke-miterlimit="8" fill="#FFFFFF" fill-rule="evenodd"/><path d="M0 0 6.03827 10.3513" stroke="#FFFFFF" stroke-width="2.5" stroke-miterlimit="8" fill="#FFFFFF" fill-rule="evenodd" transform="matrix(0.633957 -0.773369 -0.773369 -0.633957 1506.31 595.398)"/><path d="M1497.43 608.806C1495.44 607.223 1495.11 604.328 1496.69 602.341 1498.28 600.354 1501.17 600.026 1503.16 601.609 1505.15 603.192 1505.47 606.087 1503.89 608.074 1502.31 610.062 1499.41 610.389 1497.43 608.806Z" stroke="#FFFFFF" stroke-width="2.5" stroke-miterlimit="8" fill="#FFFFFF" fill-rule="evenodd"/><path d="M1494.31 596.674C1493.04 595.661 1492.83 593.809 1493.85 592.537 1494.86 591.265 1496.71 591.055 1497.98 592.069 1499.26 593.082 1499.47 594.934 1498.45 596.206 1497.44 597.478 1495.59 597.688 1494.31 596.674Z" stroke="#FFFFFF" stroke-width="2.5" stroke-miterlimit="8" fill="#FFFFFF" fill-rule="evenodd"/><path d="M0 0 6.03827 10.3513" stroke="#FFFFFF" stroke-width="2.5" stroke-miterlimit="8" fill="#FFFFFF" fill-rule="evenodd" transform="matrix(-0.623079 0.782159 0.782159 0.623079 1496.09 594.327)"/><path d="M1566.1 175.519C1565.89 172.987 1567.77 170.766 1570.31 170.56 1572.84 170.354 1575.06 172.239 1575.27 174.772 1575.47 177.304 1573.59 179.524 1571.05 179.731 1568.52 179.937 1566.3 178.052 1566.1 175.519Z" stroke="#FFFFFF" stroke-width="2.5" stroke-miterlimit="8" fill="#FFFFFF" fill-rule="evenodd"/><path d="M1571.16 165.081C1570.95 162.549 1572.84 160.329 1575.37 160.122 1577.9 159.916 1580.12 161.802 1580.33 164.334 1580.54 166.866 1578.65 169.087 1576.12 169.293 1573.59 169.5 1571.37 167.614 1571.16 165.081Z" stroke="#FFFFFF" stroke-width="2.5" stroke-miterlimit="8" fill="#FFFFFF" fill-rule="evenodd"/><path d="M0 0 6.03827 10.3513" stroke="#FFFFFF" stroke-width="2.5" stroke-miterlimit="8" fill="#FFFFFF" fill-rule="evenodd" transform="matrix(-0.996695 0.0812305 0.0812305 0.996695 1575.74 164.636)"/><path d="M1507.77 173.653C1507.96 171.12 1510.18 169.228 1512.71 169.427 1515.25 169.626 1517.14 171.841 1516.94 174.374 1516.74 176.907 1514.53 178.799 1511.99 178.6 1509.46 178.401 1507.57 176.186 1507.77 173.653Z" stroke="#FFFFFF" stroke-width="2.5" stroke-miterlimit="8" fill="#FFFFFF" fill-rule="evenodd"/><path d="M1514.35 164.034C1514.54 161.501 1516.76 159.608 1519.29 159.807 1521.82 160.006 1523.72 162.221 1523.52 164.754 1523.32 167.287 1521.1 169.179 1518.57 168.98 1516.04 168.781 1514.15 166.567 1514.35 164.034Z" stroke="#FFFFFF" stroke-width="2.5" stroke-miterlimit="8" fill="#FFFFFF" fill-rule="evenodd"/><path d="M0 0 21.7924 8.92945" stroke="#FFFFFF" stroke-width="2.5" stroke-miterlimit="8" fill="#FFFFFF" fill-rule="evenodd" transform="matrix(-0.833377 0.552706 0.552706 0.833377 1525.41 154.802)"/><path d="M1520.95 154.739C1521.15 152.206 1523.36 150.313 1525.89 150.512 1528.43 150.711 1530.32 152.926 1530.12 155.459 1529.92 157.992 1527.71 159.884 1525.17 159.685 1522.64 159.486 1520.75 157.272 1520.95 154.739Z" stroke="#FFFFFF" stroke-width="2.5" stroke-miterlimit="8" fill="#FFFFFF" fill-rule="evenodd"/><path d="M1640.67 397.247C1642.97 396.172 1645.71 397.167 1646.79 399.469 1647.86 401.771 1646.87 404.509 1644.57 405.584 1642.26 406.659 1639.53 405.664 1638.45 403.362 1637.38 401.06 1638.37 398.322 1640.67 397.247Z" stroke="#FFFFFF" stroke-width="2.5" stroke-miterlimit="8" fill="#FFFFFF" fill-rule="evenodd"/><path d="M1652.22 398.36C1654.52 397.285 1657.26 398.28 1658.34 400.582 1659.41 402.884 1658.42 405.622 1656.11 406.697 1653.81 407.772 1651.07 406.777 1650 404.475 1648.92 402.173 1649.92 399.435 1652.22 398.36Z" stroke="#FFFFFF" stroke-width="2.5" stroke-miterlimit="8" fill="#FFFFFF" fill-rule="evenodd"/><path d="M0 0 6.03827 10.3513" stroke="#FFFFFF" stroke-width="2.5" stroke-miterlimit="8" fill="#FFFFFF" fill-rule="evenodd" transform="matrix(-0.42312 -0.906074 -0.906074 0.42312 1654.23 402.498)"/><path d="M1312.99 341 1342 352 1312.99 363 1312.99 357.035 1311.74 356.741C1306.49 355.424 1301.23 354.107 1295.98 356.741 1285.48 362.009 1274.97 351.473 1264.47 356.741 1253.97 362.009 1243.46 351.473 1232.96 356.741 1225.08 360.692 1217.2 355.753 1209.32 355.259L1206.44 355.395 1205.08 354.688C1203.79 353.695 1203 352.322 1203 350.807 1203 349.291 1203.79 347.919 1205.08 346.925L1207.31 345.76 1207.35 345.754C1215.89 345.386 1224.42 351.539 1232.96 347.259 1243.46 341.991 1253.97 352.527 1264.47 347.259 1274.97 341.991 1285.48 352.527 1295.98 347.259 1301.23 344.625 1306.49 345.942 1311.74 347.259L1312.99 347.553Z" fill="url(#fill6)" fill-rule="evenodd"/><path d="M1312.99 372 1342 383 1312.99 394 1312.99 388.035 1311.74 387.741C1306.49 386.424 1301.23 385.107 1295.98 387.741 1285.48 393.009 1274.97 382.473 1264.47 387.741 1253.97 393.009 1243.46 382.473 1232.96 387.741 1225.08 391.692 1217.2 386.753 1209.32 386.259L1206.44 386.395 1205.08 385.688C1203.79 384.695 1203 383.322 1203 381.807 1203 380.291 1203.79 378.919 1205.08 377.925L1207.31 376.76 1207.35 376.754C1215.89 376.386 1224.42 382.539 1232.96 378.259 1243.46 372.991 1253.97 383.527 1264.47 378.259 1274.97 372.991 1285.48 383.527 1295.98 378.259 1301.23 375.625 1306.49 376.942 1311.74 378.259L1312.99 378.553Z" fill="url(#fill7)" fill-rule="evenodd"/><path d="M1312.99 403 1342 414.5 1312.99 426 1312.99 419.764 1311.74 419.457C1306.49 418.08 1301.23 416.703 1295.98 419.457 1285.48 424.964 1274.97 413.949 1264.47 419.457 1253.97 424.964 1243.46 413.949 1232.96 419.457 1225.08 423.587 1217.2 418.424 1209.32 417.908L1206.44 418.05 1205.08 417.31C1203.79 416.272 1203 414.837 1203 413.252 1203 411.668 1203.79 410.233 1205.08 409.195L1207.31 407.976 1207.35 407.97C1215.89 407.586 1224.42 414.018 1232.96 409.543 1243.46 404.036 1253.97 415.051 1264.47 409.543 1274.97 404.036 1285.48 415.051 1295.98 409.543 1301.23 406.79 1306.49 408.167 1311.74 409.543L1312.99 409.85Z" fill="url(#fill8)" fill-rule="evenodd"/><path d="M1553 501.5C1553 495.149 1558.37 490 1565 490 1571.63 490 1577 495.149 1577 501.5 1577 507.851 1571.63 513 1565 513 1558.37 513 1553 507.851 1553 501.5Z" stroke="#1C2C60" stroke-width="1.5" stroke-miterlimit="8" fill="none" fill-rule="evenodd"/><path d="M1557 501C1557 496.582 1560.58 493 1565 493 1569.42 493 1573 496.582 1573 501 1573 505.418 1569.42 509 1565 509 1560.58 509 1557 505.418 1557 501Z" stroke="#1C2C60" stroke-width="1.5" stroke-miterlimit="8" fill="none" fill-rule="evenodd"/><path d="M1558 474 1561.95 474" stroke="#1C2C60" stroke-width="1.5" stroke-linecap="round" stroke-linejoin="round" stroke-miterlimit="10" fill="none" fill-rule="evenodd"/><path d="M1558 472 1561.95 472" stroke="#1C2C60" stroke-width="1.5" stroke-linecap="round" stroke-linejoin="round" stroke-miterlimit="10" fill="none" fill-rule="evenodd"/><path d="M1558 470 1561.95 470" stroke="#1C2C60" stroke-width="1.5" stroke-linecap="round" stroke-linejoin="round" stroke-miterlimit="10" fill="none" fill-rule="evenodd"/><path d="M1564.12 476.467 1566.09 479.891" stroke="#1C2C60" stroke-width="1.5" stroke-linecap="round" stroke-linejoin="round" stroke-miterlimit="10" fill="none" fill-rule="evenodd"/><path d="M1565.83 475.479 1567.81 478.903" stroke="#1C2C60" stroke-width="1.5" stroke-linecap="round" stroke-linejoin="round" stroke-miterlimit="10" fill="none" fill-rule="evenodd"/><path d="M1567.54 474.491 1569.52 477.914" stroke="#1C2C60" stroke-width="1.5" stroke-linecap="round" stroke-linejoin="round" stroke-miterlimit="10" fill="none" fill-rule="evenodd"/><path d="M1546.29 480.628 1547.02 484.513" stroke="#1C2C60" stroke-width="1.5" stroke-linecap="round" stroke-linejoin="round" stroke-miterlimit="10" fill="none" fill-rule="evenodd"/><path d="M1548.23 480.262 1548.96 484.147" stroke="#1C2C60" stroke-width="1.5" stroke-linecap="round" stroke-linejoin="round" stroke-miterlimit="10" fill="none" fill-rule="evenodd"/><path d="M1550.17 479.895 1550.91 483.78" stroke="#1C2C60" stroke-width="1.5" stroke-linecap="round" stroke-linejoin="round" stroke-miterlimit="10" fill="none" fill-rule="evenodd"/><path d="M1552.09 477.583 1554.65 474.57" stroke="#1C2C60" stroke-width="1.5" stroke-linecap="round" stroke-linejoin="round" stroke-miterlimit="10" fill="none" fill-rule="evenodd"/><path d="M1550.59 476.304 1553.14 473.291" stroke="#1C2C60" stroke-width="1.5" stroke-linecap="round" stroke-linejoin="round" stroke-miterlimit="10" fill="none" fill-rule="evenodd"/><path d="M1549.08 475.024 1551.64 472.011" stroke="#1C2C60" stroke-width="1.5" stroke-linecap="round" stroke-linejoin="round" stroke-miterlimit="10" fill="none" fill-rule="evenodd"/><path d="M1558.43 484.492 1560.95 481.447" stroke="#1C2C60" stroke-width="1.5" stroke-linecap="round" stroke-linejoin="round" stroke-miterlimit="10" fill="none" fill-rule="evenodd"/><path d="M1556.91 483.231 1559.43 480.186" stroke="#1C2C60" stroke-width="1.5" stroke-linecap="round" stroke-linejoin="round" stroke-miterlimit="10" fill="none" fill-rule="evenodd"/><path d="M1555.38 481.971 1557.91 478.926" stroke="#1C2C60" stroke-width="1.5" stroke-linecap="round" stroke-linejoin="round" stroke-miterlimit="10" fill="none" fill-rule="evenodd"/><path d="M1565.92 482.27 1564.9 486.088" stroke="#1C2C60" stroke-width="1.5" stroke-linecap="round" stroke-linejoin="round" stroke-miterlimit="10" fill="none" fill-rule="evenodd"/><path d="M1567.83 482.781 1566.81 486.6" stroke="#1C2C60" stroke-width="1.5" stroke-linecap="round" stroke-linejoin="round" stroke-miterlimit="10" fill="none" fill-rule="evenodd"/><path d="M1569.74 483.293 1568.71 487.112" stroke="#1C2C60" stroke-width="1.5" stroke-linecap="round" stroke-linejoin="round" stroke-miterlimit="10" fill="none" fill-rule="evenodd"/><path d="M1549.5 489.788 1552.9 491.807" stroke="#1C2C60" stroke-width="1.5" stroke-linecap="round" stroke-linejoin="round" stroke-miterlimit="10" fill="none" fill-rule="evenodd"/><path d="M1550.51 488.089 1553.91 490.108" stroke="#1C2C60" stroke-width="1.5" stroke-linecap="round" stroke-linejoin="round" stroke-miterlimit="10" fill="none" fill-rule="evenodd"/><path d="M1551.52 486.389 1554.92 488.408" stroke="#1C2C60" stroke-width="1.5" stroke-linecap="round" stroke-linejoin="round" stroke-miterlimit="10" fill="none" fill-rule="evenodd"/></g></svg>